<svg width="35" height="13" viewBox="0 0 35 13" fill="none" xmlns="http://www.w3.org/2000/svg">
<path d="M5.18821 1.09091H3.58487L0.862926 2.87003V4.44673L3.47301 2.74219H3.53693V12H5.18821V1.09091ZM11.9371 12.1811C14.4567 12.1811 15.9322 10.125 15.9322 6.55078C15.9322 3.0032 14.4354 0.941761 11.9371 0.941761C9.43359 0.941761 7.94212 2.99787 7.93679 6.55078C7.93679 10.1197 9.41229 12.1758 11.9371 12.1811ZM11.9371 10.7589C10.4616 10.7589 9.57209 9.27805 9.57209 6.55078C9.57741 3.83416 10.467 2.33736 11.9371 2.33736C13.402 2.33736 14.2969 3.83416 14.2969 6.55078C14.2969 9.27805 13.4073 10.7589 11.9371 10.7589ZM21.6198 12.1811C24.1393 12.1811 25.6148 10.125 25.6148 6.55078C25.6148 3.0032 24.118 0.941761 21.6198 0.941761C19.1162 0.941761 17.6247 2.99787 17.6194 6.55078C17.6194 10.1197 19.0949 12.1758 21.6198 12.1811ZM21.6198 10.7589C20.1443 10.7589 19.2547 9.27805 19.2547 6.55078C19.26 3.83416 20.1496 2.33736 21.6198 2.33736C23.0846 2.33736 23.9795 3.83416 23.9795 6.55078C23.9795 9.27805 23.0899 10.7589 21.6198 10.7589ZM27.6536 12H34.2427V10.5831H29.2995V1.09091H27.6536V12Z" fill="white"/>
</svg>
