<svg width="70" height="11" viewBox="0 0 70 11" fill="none" xmlns="http://www.w3.org/2000/svg">
<path d="M4.49645 0.545454H3.10689L0.747869 2.08736V3.45384L3.00994 1.97656H3.06534V10H4.49645V0.545454ZM10.1747 10.1293C12.0767 10.1293 13.4339 8.78587 13.4293 6.94389C13.4339 5.11577 12.1598 3.78622 10.4379 3.78622C9.73615 3.78622 9.08523 4.05398 8.71591 4.41406H8.66051L8.96058 1.76882H12.9723V0.545454H7.77415L7.24325 5.30966L8.54972 5.50355C8.90518 5.18501 9.54226 4.96804 10.1147 4.96804C11.2365 4.97727 12.049 5.81747 12.049 6.97159C12.049 8.10724 11.2596 8.92898 10.1747 8.92898C9.26065 8.92898 8.53587 8.3473 8.462 7.5348H7.07706C7.13246 9.03977 8.43892 10.1293 10.1747 10.1293ZM15.7133 10.0877C16.2165 10.0877 16.6366 9.67685 16.6366 9.16442C16.6366 8.66122 16.2165 8.24574 15.7133 8.24574C15.2055 8.24574 14.79 8.66122 14.79 9.16442C14.79 9.67685 15.2055 10.0877 15.7133 10.0877ZM21.4031 10.157C23.5867 10.157 24.8655 8.375 24.8655 5.27734C24.8655 2.20277 23.5683 0.416193 21.4031 0.416193C19.2334 0.416193 17.9408 2.19815 17.9362 5.27734C17.9362 8.37038 19.2149 10.1523 21.4031 10.157ZM21.4031 8.92436C20.1244 8.92436 19.3534 7.64098 19.3534 5.27734C19.358 2.92294 20.129 1.62571 21.4031 1.62571C22.6727 1.62571 23.4482 2.92294 23.4482 5.27734C23.4482 7.64098 22.6773 8.92436 21.4031 8.92436ZM29.7947 10.157C31.9783 10.157 33.2571 8.375 33.2571 5.27734C33.2571 2.20277 31.9599 0.416193 29.7947 0.416193C27.625 0.416193 26.3324 2.19815 26.3278 5.27734C26.3278 8.37038 27.6065 10.1523 29.7947 10.157ZM29.7947 8.92436C28.516 8.92436 27.745 7.64098 27.745 5.27734C27.7496 2.92294 28.5206 1.62571 29.7947 1.62571C31.0643 1.62571 31.8398 2.92294 31.8398 5.27734C31.8398 7.64098 31.0689 8.92436 29.7947 8.92436ZM38.1863 10.157C40.3699 10.157 41.6487 8.375 41.6487 5.27734C41.6487 2.20277 40.3515 0.416193 38.1863 0.416193C36.0166 0.416193 34.724 2.19815 34.7194 5.27734C34.7194 8.37038 35.9981 10.1523 38.1863 10.157ZM38.1863 8.92436C36.9076 8.92436 36.1366 7.64098 36.1366 5.27734C36.1412 2.92294 36.9122 1.62571 38.1863 1.62571C39.4559 1.62571 40.2314 2.92294 40.2314 5.27734C40.2314 7.64098 39.4605 8.92436 38.1863 8.92436ZM43.8588 10.0877C44.362 10.0877 44.7821 9.67685 44.7821 9.16442C44.7821 8.66122 44.362 8.24574 43.8588 8.24574C43.351 8.24574 42.9355 8.66122 42.9355 9.16442C42.9355 9.67685 43.351 10.0877 43.8588 10.0877ZM49.5487 10.157C51.7322 10.157 53.011 8.375 53.011 5.27734C53.011 2.20277 51.7138 0.416193 49.5487 0.416193C47.3789 0.416193 46.0863 2.19815 46.0817 5.27734C46.0817 8.37038 47.3604 10.1523 49.5487 10.157ZM49.5487 8.92436C48.2699 8.92436 47.4989 7.64098 47.4989 5.27734C47.5036 2.92294 48.2745 1.62571 49.5487 1.62571C50.8182 1.62571 51.5938 2.92294 51.5938 5.27734C51.5938 7.64098 50.8228 8.92436 49.5487 8.92436ZM57.9403 10.157C60.1238 10.157 61.4026 8.375 61.4026 5.27734C61.4026 2.20277 60.1054 0.416193 57.9403 0.416193C55.7705 0.416193 54.4779 2.19815 54.4733 5.27734C54.4733 8.37038 55.752 10.1523 57.9403 10.157ZM57.9403 8.92436C56.6615 8.92436 55.8905 7.64098 55.8905 5.27734C55.8952 2.92294 56.6661 1.62571 57.9403 1.62571C59.2098 1.62571 59.9854 2.92294 59.9854 5.27734C59.9854 7.64098 59.2144 8.92436 57.9403 8.92436ZM66.3319 10.157C68.5154 10.157 69.7942 8.375 69.7942 5.27734C69.7942 2.20277 68.497 0.416193 66.3319 0.416193C64.1621 0.416193 62.8695 2.19815 62.8649 5.27734C62.8649 8.37038 64.1436 10.1523 66.3319 10.157ZM66.3319 8.92436C65.0531 8.92436 64.2821 7.64098 64.2821 5.27734C64.2868 2.92294 65.0577 1.62571 66.3319 1.62571C67.6014 1.62571 68.377 2.92294 68.377 5.27734C68.377 7.64098 67.606 8.92436 66.3319 8.92436Z" fill="#FFBD3E"/>
</svg>
