<svg width="43" height="19" viewBox="0 0 43 19" fill="none" xmlns="http://www.w3.org/2000/svg">
<path d="M0.678977 18H12.1676V15.7415H4.30966V15.6136L7.77841 11.983C10.9744 8.75284 11.8864 7.21023 11.8864 5.25852C11.8864 2.45454 9.60227 0.306818 6.3125 0.306818C3.0483 0.306818 0.661932 2.42045 0.661932 5.60795H3.17614C3.16761 3.73295 4.37784 2.50568 6.26136 2.50568C8.03409 2.50568 9.38068 3.59659 9.38068 5.33523C9.38068 6.87784 8.46023 7.9858 6.58523 9.97159L0.678977 16.0909V18ZM21.1591 18.2386C24.6705 18.2386 27.1761 15.7585 27.1676 12.358C27.1761 8.98295 24.8239 6.52841 21.6449 6.52841C20.3494 6.52841 19.1477 7.02273 18.4659 7.6875H18.3636L18.9176 2.80398H26.3239V0.545454H16.7273L15.7472 9.34091L18.1591 9.69886C18.8153 9.1108 19.9915 8.71023 21.0483 8.71023C23.1193 8.72727 24.6193 10.2784 24.6193 12.4091C24.6193 14.5057 23.1619 16.0227 21.1591 16.0227C19.4716 16.0227 18.1335 14.9489 17.9972 13.4489H15.4403C15.5426 16.2273 17.9545 18.2386 21.1591 18.2386ZM36.3572 18.2386C39.9197 18.2386 42.5362 16.108 42.5277 13.2102C42.5362 11.0028 41.1982 9.41761 38.88 9.05966V8.9233C40.7038 8.45455 41.8885 7.02273 41.88 5.0625C41.8885 2.49716 39.7834 0.306818 36.4254 0.306818C33.2209 0.306818 30.647 2.24148 30.5618 5.07954H33.1101C33.1697 3.47727 34.6783 2.50568 36.3913 2.50568C38.1726 2.50568 39.3402 3.58807 39.3317 5.19886C39.3402 6.88636 37.9851 7.99432 36.0504 7.99432H34.576V10.142H36.0504C38.4709 10.142 39.8686 11.3693 39.8686 13.125C39.8686 14.821 38.3942 15.9716 36.3402 15.9716C34.4482 15.9716 32.9737 15 32.8714 13.4489H30.1953C30.3061 16.2955 32.8288 18.2386 36.3572 18.2386Z" fill="white"/>
</svg>
