<svg width="82" height="11" viewBox="0 0 82 11" fill="none" xmlns="http://www.w3.org/2000/svg">
<path d="M4.20099 10.1293C6.13068 10.1293 7.54794 8.97514 7.54332 7.40554C7.54794 6.20987 6.82315 5.35121 5.56747 5.15732V5.08345C6.5554 4.82955 7.19709 4.05398 7.19247 2.99219C7.19709 1.60263 6.05682 0.416193 4.23793 0.416193C2.50213 0.416193 1.10795 1.46413 1.06179 3.00142H2.44212C2.47443 2.13352 3.29155 1.60724 4.21946 1.60724C5.1843 1.60724 5.81676 2.19354 5.81215 3.06605C5.81676 3.98011 5.08274 4.58026 4.0348 4.58026H3.23615V5.74361H4.0348C5.34588 5.74361 6.10298 6.40838 6.10298 7.35938C6.10298 8.27805 5.30433 8.90128 4.19176 8.90128C3.1669 8.90128 2.36825 8.375 2.31286 7.5348H0.863281C0.923295 9.0767 2.28977 10.1293 4.20099 10.1293ZM10.2163 4.09091C10.7195 4.09091 11.1396 3.68004 11.1396 3.16761C11.1396 2.66442 10.7195 2.24893 10.2163 2.24893C9.70845 2.24893 9.29297 2.66442 9.29297 3.16761C9.29297 3.68004 9.70845 4.09091 10.2163 4.09091ZM10.2163 8.82741C10.7195 8.82741 11.1396 8.41655 11.1396 7.90412C11.1396 7.40092 10.7195 6.98544 10.2163 6.98544C9.70845 6.98544 9.29297 7.40092 9.29297 7.90412C9.29297 8.41655 9.70845 8.82741 10.2163 8.82741ZM12.97 10H19.193V8.77663H14.9366V8.70739L16.8155 6.74077C18.5467 4.99112 19.0407 4.15554 19.0407 3.09837C19.0407 1.57954 17.8034 0.416193 16.0215 0.416193C14.2534 0.416193 12.9608 1.56108 12.9608 3.28764H14.3226C14.318 2.27202 14.9735 1.60724 15.9938 1.60724C16.954 1.60724 17.6834 2.19815 17.6834 3.13991C17.6834 3.9755 17.1848 4.57564 16.1692 5.65128L12.97 8.96591V10ZM24.2342 10.157C26.4178 10.157 27.6966 8.375 27.6966 5.27734C27.6966 2.20277 26.3993 0.416193 24.2342 0.416193C22.0645 0.416193 20.7718 2.19815 20.7672 5.27734C20.7672 8.37038 22.046 10.1523 24.2342 10.157ZM24.2342 8.92436C22.9554 8.92436 22.1845 7.64098 22.1845 5.27734C22.1891 2.92294 22.96 1.62571 24.2342 1.62571C25.5037 1.62571 26.2793 2.92294 26.2793 5.27734C26.2793 7.64098 25.5083 8.92436 24.2342 8.92436ZM32.7747 10H38.9977V8.77663H34.7413V8.70739L36.6202 6.74077C38.3514 4.99112 38.8453 4.15554 38.8453 3.09837C38.8453 1.57954 37.6081 0.416193 35.8262 0.416193C34.0581 0.416193 32.7654 1.56108 32.7654 3.28764H34.1273C34.1227 2.27202 34.7782 1.60724 35.7985 1.60724C36.7587 1.60724 37.4881 2.19815 37.4881 3.13991C37.4881 3.9755 36.9895 4.57564 35.9739 5.65128L32.7747 8.96591V10ZM44.3343 0.545454H42.9448L40.5858 2.08736V3.45384L42.8478 1.97656H42.9032V10H44.3343V0.545454ZM47.2866 10.0877C47.7898 10.0877 48.2099 9.67685 48.2099 9.16442C48.2099 8.66122 47.7898 8.24574 47.2866 8.24574C46.7788 8.24574 46.3633 8.66122 46.3633 9.16442C46.3633 9.67685 46.7788 10.0877 47.2866 10.0877ZM52.4847 0.545454H51.0952L48.7362 2.08736V3.45384L50.9982 1.97656H51.0536V10H52.4847V0.545454ZM55.0423 10H61.2653V8.77663H57.0089V8.70739L58.8878 6.74077C60.619 4.99112 61.1129 4.15554 61.1129 3.09837C61.1129 1.57954 59.8757 0.416193 58.0938 0.416193C56.3256 0.416193 55.033 1.56108 55.033 3.28764H56.3949C56.3903 2.27202 57.0458 1.60724 58.0661 1.60724C59.0263 1.60724 59.7557 2.19815 59.7557 3.13991C59.7557 3.9755 59.2571 4.57564 58.2415 5.65128L55.0423 8.96591V10ZM63.9428 10.0877C64.446 10.0877 64.8661 9.67685 64.8661 9.16442C64.8661 8.66122 64.446 8.24574 63.9428 8.24574C63.435 8.24574 63.0195 8.66122 63.0195 9.16442C63.0195 9.67685 63.435 10.0877 63.9428 10.0877ZM66.6966 10H72.9196V8.77663H68.6632V8.70739L70.5421 6.74077C72.2733 4.99112 72.7672 4.15554 72.7672 3.09837C72.7672 1.57954 71.53 0.416193 69.748 0.416193C67.9799 0.416193 66.6873 1.56108 66.6873 3.28764H68.0492C68.0446 2.27202 68.7001 1.60724 69.7203 1.60724C70.6806 1.60724 71.41 2.19815 71.41 3.13991C71.41 3.9755 70.9114 4.57564 69.8958 5.65128L66.6966 8.96591V10ZM77.9608 10.157C80.1444 10.157 81.4231 8.375 81.4231 5.27734C81.4231 2.20277 80.1259 0.416193 77.9608 0.416193C75.791 0.416193 74.4984 2.19815 74.4938 5.27734C74.4938 8.37038 75.7725 10.1523 77.9608 10.157ZM77.9608 8.92436C76.682 8.92436 75.911 7.64098 75.911 5.27734C75.9157 2.92294 76.6866 1.62571 77.9608 1.62571C79.2303 1.62571 80.0059 2.92294 80.0059 5.27734C80.0059 7.64098 79.2349 8.92436 77.9608 8.92436Z" fill="white"/>
</svg>
