<svg width="25" height="25" viewBox="0 0 25 25" fill="none" xmlns="http://www.w3.org/2000/svg">
<path d="M23.0751 1.94938C21.8181 0.69211 20.147 0 18.369 0C16.591 0 14.9198 0.69211 13.6628 1.94938L9.24611 6.36609C8.37679 7.23542 8.37679 8.6496 9.24611 9.51893L10.1797 10.4525L0.171498 20.4607C0.0795895 20.5526 0.0326194 20.68 0.0427751 20.8093L0.311393 24.2152C0.32815 24.4282 0.494196 24.5991 0.706449 24.6215L4.22006 24.9975C4.23581 24.9992 4.25155 25 4.26729 25C4.38433 25 4.49731 24.9535 4.5811 24.87L14.589 14.8618L15.5056 15.7784C15.9402 16.2131 16.511 16.4304 17.082 16.4304C17.653 16.4304 18.2237 16.2131 18.6584 15.7784L23.0751 11.3619C24.3324 10.1049 25.0245 8.43354 25.0245 6.65553C25.0245 4.87778 24.3324 3.20641 23.0751 1.94938ZM4.10353 24.0923L1.16726 23.7783L0.943585 20.9433L10.807 11.0799L12.062 12.3348L11.1526 13.2443L10.525 12.6169C10.3518 12.4435 10.071 12.4435 9.8976 12.6169C9.72445 12.7901 9.72445 13.0711 9.8976 13.2443L10.5252 13.8717L8.01525 16.3816L7.38788 15.754C7.21447 15.5809 6.93366 15.5809 6.76051 15.754C6.5871 15.9272 6.5871 16.2082 6.76051 16.3816L7.38788 17.0093L4.25028 20.1466L3.62291 19.519C3.4495 19.3458 3.1687 19.3458 2.99529 19.519C2.82213 19.6921 2.82213 19.9732 2.99529 20.1466L3.62291 20.7742L2.68148 21.7154C2.50832 21.8886 2.50832 22.1694 2.68148 22.3428C2.76831 22.4294 2.8818 22.4728 2.99529 22.4728C3.10878 22.4728 3.22227 22.4294 3.3091 22.3428L6.13289 19.519L6.6427 20.0288C6.72928 20.1154 6.84302 20.1588 6.95651 20.1588C7.06975 20.1588 7.18349 20.1154 7.27007 20.0288C7.44348 19.8556 7.44348 19.5743 7.27007 19.4014L6.76026 18.8916L9.58405 16.0676L10.0939 16.5776C10.1804 16.6642 10.2942 16.7076 10.4077 16.7076C10.5212 16.7076 10.6347 16.6642 10.7212 16.5776C10.8946 16.4042 10.8946 16.1234 10.7212 15.95L10.2114 15.4402L12.6897 12.9622L13.9617 14.2342L4.10353 24.0923ZM22.4478 10.7343L18.031 15.151C17.5075 15.674 16.6565 15.674 16.1332 15.151L9.87348 8.89131C9.35021 8.36804 9.35021 7.51673 9.87348 6.99346L14.2902 2.57675C15.3796 1.4873 16.8284 0.887353 18.369 0.887353C19.9096 0.887353 21.3583 1.4873 22.4478 2.57675C23.5375 3.66646 24.1371 5.11491 24.1371 6.65553C24.1371 8.1964 23.5372 9.64486 22.4478 10.7343Z" fill="#20D028"/>
</svg>
