<svg width="20" height="20" viewBox="0 0 20 20" fill="none" xmlns="http://www.w3.org/2000/svg">
<path d="M10 20C4.48578 20 0 15.5142 0 10C0 4.48578 4.48578 0 10 0C15.5142 0 20 4.48578 20 10C20 15.5142 15.5142 20 10 20ZM10 1.25C5.17502 1.25 1.25 5.17502 1.25 10C1.25 14.825 5.17502 18.75 10 18.75C14.825 18.75 18.75 14.825 18.75 10C18.75 5.17502 14.825 1.25 10 1.25Z" fill="white"/>
<path d="M14.375 15.4167C14.2149 15.4167 14.055 15.3558 13.9333 15.2333L9.55826 10.8583C9.44077 10.7408 9.375 10.5817 9.375 10.4167V4.58328C9.375 4.23828 9.655 3.95828 10 3.95828C10.345 3.95828 10.625 4.23828 10.625 4.58328V10.1575L14.8167 14.3492C15.0609 14.5934 15.0609 14.9892 14.8167 15.2333C14.695 15.3558 14.5351 15.4167 14.375 15.4167Z" fill="white"/>
</svg>
