<svg width="40" height="39" viewBox="0 0 40 39" fill="none" xmlns="http://www.w3.org/2000/svg">
<g clip-path="url(#clip0)">
<g clip-path="url(#clip1)">
<path d="M29.4786 11.5179C27.7562 9.79553 24.9535 9.79603 23.2316 11.5179C23.0585 11.6913 23.0585 11.9721 23.2316 12.1453L28.8792 17.7929C28.9658 17.8795 29.0795 17.9229 29.193 17.9229C29.3065 17.9229 29.42 17.8795 29.5066 17.7929C31.2287 16.0707 31.2287 13.2683 29.4786 11.5179ZM29.1732 16.8322L24.1926 11.8515C25.5761 10.7771 27.5833 10.8771 28.8792 12.1735C30.1492 13.4437 30.2472 15.4484 29.1732 16.8322Z" fill="#B30A21"/>
<path d="M31.0751 9.94938C29.8181 8.69211 28.147 8 26.369 8C24.591 8 22.9198 8.69211 21.6628 9.94938L17.2461 14.3661C16.3768 15.2354 16.3768 16.6496 17.2461 17.5189L18.1797 18.4525L8.1715 28.4607C8.07959 28.5526 8.03262 28.68 8.04278 28.8093L8.31139 32.2152C8.32815 32.4282 8.4942 32.5991 8.70645 32.6215L12.2201 32.9975C12.2358 32.9992 12.2515 33 12.2673 33C12.3843 33 12.4973 32.9535 12.5811 32.87L22.589 22.8618L23.5056 23.7784C23.9402 24.2131 24.511 24.4304 25.082 24.4304C25.653 24.4304 26.2237 24.2131 26.6584 23.7784L31.0751 19.3619C32.3324 18.1049 33.0245 16.4335 33.0245 14.6555C33.0245 12.8778 32.3324 11.2064 31.0751 9.94938ZM12.1035 32.0923L9.16726 31.7783L8.94358 28.9433L18.807 19.0799L20.062 20.3348L19.1526 21.2443L18.525 20.6169C18.3518 20.4435 18.071 20.4435 17.8976 20.6169C17.7244 20.7901 17.7244 21.0711 17.8976 21.2443L18.5252 21.8717L16.0152 24.3816L15.3879 23.754C15.2145 23.5809 14.9337 23.5809 14.7605 23.754C14.5871 23.9272 14.5871 24.2082 14.7605 24.3816L15.3879 25.0093L12.2503 28.1466L11.6229 27.519C11.4495 27.3458 11.1687 27.3458 10.9953 27.519C10.8221 27.6921 10.8221 27.9732 10.9953 28.1466L11.6229 28.7742L10.6815 29.7154C10.5083 29.8886 10.5083 30.1694 10.6815 30.3428C10.7683 30.4294 10.8818 30.4728 10.9953 30.4728C11.1088 30.4728 11.2223 30.4294 11.3091 30.3428L14.1329 27.519L14.6427 28.0288C14.7293 28.1154 14.843 28.1588 14.9565 28.1588C15.0698 28.1588 15.1835 28.1154 15.2701 28.0288C15.4435 27.8556 15.4435 27.5743 15.2701 27.4014L14.7603 26.8916L17.584 24.0676L18.0939 24.5776C18.1804 24.6642 18.2942 24.7076 18.4077 24.7076C18.5212 24.7076 18.6347 24.6642 18.7212 24.5776C18.8946 24.4042 18.8946 24.1234 18.7212 23.95L18.2114 23.4402L20.6897 20.9622L21.9617 22.2342L12.1035 32.0923ZM30.4478 18.7343L26.031 23.151C25.5075 23.674 24.6565 23.674 24.1332 23.151L17.8735 16.8913C17.3502 16.368 17.3502 15.5167 17.8735 14.9935L22.2902 10.5768C23.3796 9.4873 24.8284 8.88735 26.369 8.88735C27.9096 8.88735 29.3583 9.4873 30.4478 10.5768C31.5375 11.6665 32.1371 13.1149 32.1371 14.6555C32.1371 16.1964 31.5372 17.6449 30.4478 18.7343Z" fill="#B30A21"/>
</g>
<g clip-path="url(#clip2)">
<path d="M29.4786 11.5179C27.7562 9.79553 24.9535 9.79603 23.2316 11.5179C23.0585 11.6913 23.0585 11.9721 23.2316 12.1453L28.8792 17.7929C28.9658 17.8795 29.0795 17.9229 29.193 17.9229C29.3065 17.9229 29.42 17.8795 29.5066 17.7929C31.2287 16.0707 31.2287 13.2683 29.4786 11.5179ZM29.1732 16.8322L24.1926 11.8515C25.5761 10.7771 27.5833 10.8771 28.8792 12.1735C30.1492 13.4437 30.2472 15.4484 29.1732 16.8322Z" fill="#20D028"/>
<path d="M31.0751 9.94938C29.8181 8.69211 28.147 8 26.369 8C24.591 8 22.9198 8.69211 21.6628 9.94938L17.2461 14.3661C16.3768 15.2354 16.3768 16.6496 17.2461 17.5189L18.1797 18.4525L8.1715 28.4607C8.07959 28.5526 8.03262 28.68 8.04278 28.8093L8.31139 32.2152C8.32815 32.4282 8.4942 32.5991 8.70645 32.6215L12.2201 32.9975C12.2358 32.9992 12.2515 33 12.2673 33C12.3843 33 12.4973 32.9535 12.5811 32.87L22.589 22.8618L23.5056 23.7784C23.9402 24.2131 24.511 24.4304 25.082 24.4304C25.653 24.4304 26.2237 24.2131 26.6584 23.7784L31.0751 19.3619C32.3324 18.1049 33.0245 16.4335 33.0245 14.6555C33.0245 12.8778 32.3324 11.2064 31.0751 9.94938ZM12.1035 32.0923L9.16726 31.7783L8.94358 28.9433L18.807 19.0799L20.062 20.3348L19.1526 21.2443L18.525 20.6169C18.3518 20.4435 18.071 20.4435 17.8976 20.6169C17.7244 20.7901 17.7244 21.0711 17.8976 21.2443L18.5252 21.8717L16.0152 24.3816L15.3879 23.754C15.2145 23.5809 14.9337 23.5809 14.7605 23.754C14.5871 23.9272 14.5871 24.2082 14.7605 24.3816L15.3879 25.0093L12.2503 28.1466L11.6229 27.519C11.4495 27.3458 11.1687 27.3458 10.9953 27.519C10.8221 27.6921 10.8221 27.9732 10.9953 28.1466L11.6229 28.7742L10.6815 29.7154C10.5083 29.8886 10.5083 30.1694 10.6815 30.3428C10.7683 30.4294 10.8818 30.4728 10.9953 30.4728C11.1088 30.4728 11.2223 30.4294 11.3091 30.3428L14.1329 27.519L14.6427 28.0288C14.7293 28.1154 14.843 28.1588 14.9565 28.1588C15.0698 28.1588 15.1835 28.1154 15.2701 28.0288C15.4435 27.8556 15.4435 27.5743 15.2701 27.4014L14.7603 26.8916L17.584 24.0676L18.0939 24.5776C18.1804 24.6642 18.2942 24.7076 18.4077 24.7076C18.5212 24.7076 18.6347 24.6642 18.7212 24.5776C18.8946 24.4042 18.8946 24.1234 18.7212 23.95L18.2114 23.4402L20.6897 20.9622L21.9617 22.2342L12.1035 32.0923ZM30.4478 18.7343L26.031 23.151C25.5075 23.674 24.6565 23.674 24.1332 23.151L17.8735 16.8913C17.3502 16.368 17.3502 15.5167 17.8735 14.9935L22.2902 10.5768C23.3796 9.4873 24.8284 8.88735 26.369 8.88735C27.9096 8.88735 29.3583 9.4873 30.4478 10.5768C31.5375 11.6665 32.1371 13.1149 32.1371 14.6555C32.1371 16.1964 31.5372 17.6449 30.4478 18.7343Z" fill="#20D028"/>
</g>
<g clip-path="url(#clip3)">
<path d="M22.9997 212.007C20.4526 212.007 17.8905 211.397 15.5467 210.164C10.2969 207.398 6.99944 201.945 6.99944 196.007V116.007H-201C-209.844 116.007 -217 108.851 -217 100.007V-59.993C-217 -68.8372 -209.844 -75.9933 -201 -75.9933H7.00037V-155.993C7.00037 -161.93 10.2969 -167.383 15.5476 -170.15C20.7823 -172.947 27.1413 -172.556 32.0631 -169.181L288.063 6.81943C292.407 9.80402 295.001 14.7409 295.001 20.0066C295.001 25.2722 292.407 30.21 288.063 33.1937L32.0622 209.195C29.3436 211.054 26.1717 212.007 22.9997 212.007ZM-185 84.0068H22.9997C31.8439 84.0068 39 91.1629 39 100.007V165.586L250.766 20.0075L39 -125.571V-59.993C39 -51.1488 31.8439 -43.9927 22.9997 -43.9927H-185V84.0068Z" fill="black"/>
</g>
</g>
<defs>
<clipPath id="clip0">
<rect width="40" height="39" fill="white"/>
</clipPath>
<clipPath id="clip1">
<rect width="25" height="25" fill="white" transform="translate(8 8)"/>
</clipPath>
<clipPath id="clip2">
<rect width="25" height="25" fill="white" transform="translate(8 8)"/>
</clipPath>
<clipPath id="clip3">
<rect width="512" height="512" fill="white" transform="translate(-217 -236)"/>
</clipPath>
</defs>
</svg>
