<svg width="40" height="34" viewBox="0 0 40 34" fill="none" xmlns="http://www.w3.org/2000/svg">
<path d="M33.2676 20.6973C33.6721 20.6973 34 20.3694 34 19.9648C34 19.5603 33.6721 19.2324 33.2676 19.2324H31.0703V12.6406C31.0703 11.6614 30.4058 10.858 29.5566 10.5658V9.71094C29.5566 8.49939 28.5709 7.51367 27.3594 7.51367C26.1478 7.51367 25.1621 8.49939 25.1621 9.71094V10.4434H23.6973V9.71094C23.6973 8.49939 22.7115 7.51367 21.5 7.51367C20.2885 7.51367 19.3027 8.49939 19.3027 9.71094V10.4434H17.8379V9.71094C17.8379 8.49939 16.8522 7.51367 15.6406 7.51367C14.4291 7.51367 13.4434 8.49939 13.4434 9.71094V10.5658C12.5925 10.8586 11.9297 11.6623 11.9297 12.6406V16.3027H10.4648V15.5703C10.4648 15.1658 10.137 14.8379 9.73242 14.8379C9.32787 14.8379 9 15.1658 9 15.5703V21.4297C9 21.8342 9.32787 22.1621 9.73242 22.1621C10.137 22.1621 10.4648 21.8342 10.4648 21.4297V20.6973H11.9297V24.3594C11.9297 25.5736 12.9602 26.5566 14.1758 26.5566H20.7676V27.2891C20.7676 28.5006 21.7533 29.4863 22.9648 29.4863H28.8242C30.0381 29.4863 31.0703 28.5054 31.0703 27.2891V26.5566H33.2676C33.6721 26.5566 34 26.2288 34 25.8242V22.8945C34 22.49 33.6721 22.1621 33.2676 22.1621H31.0703V20.6973H33.2676ZM26.627 9.71094C26.627 9.30715 26.9556 8.97852 27.3594 8.97852C27.7632 8.97852 28.0918 9.30715 28.0918 9.71094V10.4434H26.627V9.71094ZM20.7676 9.71094C20.7676 9.30715 21.0962 8.97852 21.5 8.97852C21.9038 8.97852 22.2324 9.30715 22.2324 9.71094V10.4434H20.7676V9.71094ZM15.6406 8.97852C16.0444 8.97852 16.373 9.30715 16.373 9.71094V10.4434H14.9082V9.71094C14.9082 9.30715 15.2368 8.97852 15.6406 8.97852ZM14.1758 11.9082H28.8242C29.2404 11.9082 29.6055 12.2504 29.6055 12.6406V13.373H13.3945V12.6406C13.3945 12.2504 13.7596 11.9082 14.1758 11.9082ZM10.4648 19.2324V17.7676H11.9297V19.2324H10.4648ZM29.6055 27.2891C29.6055 27.6793 29.2404 28.0215 28.8242 28.0215H22.9648C22.5611 28.0215 22.2324 27.6928 22.2324 27.2891V25.8242C22.2324 25.4197 21.9045 25.0918 21.5 25.0918H14.1758C13.7596 25.0918 13.3945 24.7496 13.3945 24.3594V23.627H29.6055V27.2891ZM32.5352 23.627V25.0918H31.0703V23.627H32.5352ZM29.6055 22.1621H13.3945V14.8379H29.6055V19.2324H27.3594C26.9556 19.2324 26.627 18.9038 26.627 18.5V17.0352C26.627 16.6306 26.2991 16.3027 25.8945 16.3027C25.49 16.3027 25.1621 16.6306 25.1621 17.0352V18.5C25.1621 18.7567 25.2067 19.0032 25.288 19.2324H24.4297C24.0259 19.2324 23.6973 18.9038 23.6973 18.5V17.0352C23.6973 16.6306 23.3694 16.3027 22.9648 16.3027C22.5603 16.3027 22.2324 16.6306 22.2324 17.0352V18.5C22.2324 18.7567 22.2771 19.0032 22.3583 19.2324H21.5C21.0962 19.2324 20.7676 18.9038 20.7676 18.5V17.0352C20.7676 16.6306 20.4397 16.3027 20.0352 16.3027C19.6306 16.3027 19.3027 16.6306 19.3027 17.0352V18.5C19.3027 18.7567 19.3474 19.0032 19.4286 19.2324H18.5703C18.1665 19.2324 17.8379 18.9038 17.8379 18.5V17.0352C17.8379 16.6306 17.51 16.3027 17.1055 16.3027C16.7009 16.3027 16.373 16.6306 16.373 17.0352V18.5C16.373 19.7115 17.3588 20.6973 18.5703 20.6973H29.6055V22.1621Z" fill="#20D028"/>
</svg>
