<svg width="265" height="109" viewBox="0 0 265 109" fill="none" xmlns="http://www.w3.org/2000/svg">
<g filter="url(#filter0_d)">
<path d="M50.4093 26.5907C46.9549 23.1364 41.3344 23.1364 37.8801 26.5907C34.4862 29.9845 32.821 33.1525 31.483 35.698C30.8316 36.9375 30.2689 38.0079 29.6168 38.9121C28.8425 39.9856 28.9555 41.4399 29.8856 42.37L30.2099 42.6943L26.4144 46.4897C25.2496 45.9935 23.8606 46.2324 22.9277 47.1653C21.6908 48.4023 21.6908 50.4149 22.9277 51.6519C23.3613 52.0854 23.9056 52.379 24.4927 52.5072C24.6209 53.0942 24.9145 53.6387 25.348 54.0722C25.9665 54.6907 26.7789 54.9999 27.5913 54.9999C28.4037 54.9999 29.2161 54.6907 29.8345 54.0722C30.7674 53.1393 31.0065 51.7504 30.5101 50.5855L34.3056 46.79L34.6299 47.1143C35.1469 47.6314 35.8258 47.8959 36.5114 47.8959C37.059 47.8959 37.611 47.727 38.0877 47.3831C38.9919 46.731 40.0623 46.1683 41.3018 45.5169C43.8473 44.1789 47.0153 42.5136 50.4091 39.1198C53.8635 35.6656 53.8635 30.045 50.4093 26.5907ZM33.021 45.5054L28.733 49.7934C28.4083 50.1181 28.377 50.6341 28.6601 50.9957C29.0811 51.5335 29.0337 52.3039 28.5499 52.7877C28.0213 53.3163 27.1612 53.3163 26.6327 52.7877C26.3548 52.5098 26.2115 52.1247 26.2398 51.7312C26.2587 51.4684 26.1624 51.2103 25.9761 51.0239C25.8051 50.853 25.5738 50.7579 25.3338 50.7579C25.3123 50.7579 25.2906 50.7586 25.2688 50.7602C24.8747 50.7883 24.4902 50.6452 24.2123 50.3673C23.6837 49.8386 23.6837 48.9785 24.2123 48.45C24.6961 47.9662 25.4664 47.9188 26.0042 48.3399C26.3658 48.6231 26.8818 48.5917 27.2065 48.267L31.4946 43.9789L31.803 44.2874L33.021 45.5054ZM49.1246 37.8353C45.9259 41.034 43.0202 42.5613 40.4566 43.9088C39.2104 44.5638 38.0332 45.1826 37.0251 45.9097C36.6781 46.16 36.2112 46.1263 35.9146 45.8298L31.1702 41.0854C30.8737 40.7888 30.84 40.3217 31.0902 39.9748C31.8173 38.9667 32.4361 37.7896 33.0912 36.5433C34.4386 33.9797 35.966 31.0741 39.1647 27.8753C40.5377 26.5023 42.3412 25.8158 44.1447 25.8158C45.9482 25.8158 47.7517 26.5023 49.1246 27.8753C51.8706 30.6213 51.8706 35.0893 49.1246 37.8353Z" fill="white"/>
</g>
<g filter="url(#filter1_d)">
<path d="M49.0015 89.2673C48.9282 85.5344 46.6682 82.2406 44.2682 78.7531C42.0815 75.5691 39.8215 72.2754 39.2615 68.5554C39.2082 68.239 38.9215 68 38.5882 68C38.2482 68.0065 37.9682 68.2519 37.9349 68.5748C37.5216 72.3141 35.3882 75.6854 33.3282 78.9404C31.0682 82.5183 28.9349 85.8895 29.0015 89.616C29.1015 94.8279 33.5682 99 39.0015 99C39.0615 99 39.1282 99 39.1882 99C41.8349 98.9613 44.3549 97.915 46.2015 96.0809C48.0482 94.266 49.0548 91.8119 49.0015 89.2673ZM45.2415 95.1766C43.6415 96.7654 41.4548 97.676 39.1615 97.7083C34.3682 97.8052 30.4282 94.1498 30.3348 89.5966C30.2681 86.2448 32.3081 83.0285 34.4615 79.625C36.0882 77.061 37.7548 74.426 38.6548 71.5521C39.6681 74.4002 41.4348 76.9706 43.1548 79.4765C45.4415 82.8025 47.6015 85.9412 47.6681 89.2931C47.7148 91.489 46.8415 93.6073 45.2415 95.1766Z" fill="white"/>
<path d="M45.8415 90.6235C45.4882 90.5331 45.1215 90.7398 45.0282 91.0821C44.7682 92.0443 44.2815 92.9356 43.6149 93.6912C43.3149 94.0335 42.9749 94.3371 42.6082 94.6083C42.3149 94.8214 42.2549 95.2283 42.4749 95.5124C42.6949 95.7966 43.1149 95.8547 43.4082 95.6416C43.8549 95.3187 44.2615 94.9441 44.6282 94.5372C45.4282 93.6331 46.0082 92.5675 46.3215 91.4114C46.4082 91.0692 46.1948 90.714 45.8415 90.6235Z" fill="white"/>
</g>
<g filter="url(#filter2_d)">
<path d="M59 82C59 78.6863 61.6863 76 65 76H245C248.314 76 251 78.6863 251 82C251 85.3137 248.314 88 245 88H65C61.6863 88 59 85.3137 59 82Z" fill="#0062D6"/>
<path d="M59.5 82C59.5 78.9624 61.9624 76.5 65 76.5H245C248.038 76.5 250.5 78.9624 250.5 82C250.5 85.0376 248.038 87.5 245 87.5H65C61.9624 87.5 59.5 85.0376 59.5 82Z" stroke="white"/>
</g>
<path d="M146.303 77.5455H145.158L142.794 79.1151V80.2784L145.102 78.7457H145.158V87H146.303V77.5455ZM152.105 87.1293C154.192 87.1293 155.392 85.3612 155.392 82.2727C155.392 79.2074 154.174 77.4162 152.105 77.4162C150.037 77.4162 148.819 79.2074 148.819 82.2727C148.819 85.3612 150.019 87.1293 152.105 87.1293ZM152.105 86.1136C150.73 86.1136 149.926 84.7333 149.926 82.2727C149.926 79.8168 150.739 78.4134 152.105 78.4134C153.472 78.4134 154.284 79.8168 154.284 82.2727C154.284 84.7333 153.481 86.1136 152.105 86.1136ZM160.23 87.1293C162.317 87.1293 163.517 85.3612 163.517 82.2727C163.517 79.2074 162.299 77.4162 160.23 77.4162C158.162 77.4162 156.944 79.2074 156.944 82.2727C156.944 85.3612 158.144 87.1293 160.23 87.1293ZM160.23 86.1136C158.855 86.1136 158.051 84.7333 158.051 82.2727C158.051 79.8168 158.864 78.4134 160.23 78.4134C161.597 78.4134 162.409 79.8168 162.409 82.2727C162.409 84.7333 161.606 86.1136 160.23 86.1136ZM170.091 85.2273C170.091 86.2614 170.738 87.1293 171.938 87.1293C173.12 87.1293 173.766 86.2614 173.766 85.2273V84.7287C173.766 83.6946 173.138 82.8267 171.938 82.8267C170.756 82.8267 170.091 83.6946 170.091 84.7287V85.2273ZM165.382 79.8168C165.382 80.8509 166.029 81.7188 167.229 81.7188C168.411 81.7188 169.057 80.8509 169.057 79.8168V79.3182C169.057 78.2841 168.429 77.4162 167.229 77.4162C166.047 77.4162 165.382 78.2841 165.382 79.3182V79.8168ZM165.733 87H166.786L173.286 77.5455H172.233L165.733 87ZM171.033 84.7287C171.033 84.1562 171.292 83.6207 171.938 83.6207C172.603 83.6207 172.824 84.1562 172.824 84.7287V85.2273C172.824 85.7997 172.584 86.3352 171.938 86.3352C171.273 86.3352 171.033 85.7997 171.033 85.2273V84.7287ZM166.324 79.3182C166.324 78.7457 166.583 78.2102 167.229 78.2102C167.894 78.2102 168.115 78.7457 168.115 79.3182V79.8168C168.115 80.3892 167.875 80.9247 167.229 80.9247C166.564 80.9247 166.324 80.3892 166.324 79.8168V79.3182Z" fill="white"/>
<g filter="url(#filter3_d)">
<path d="M59 38C59 34.6863 61.6863 32 65 32H245C248.314 32 251 34.6863 251 38C251 41.3137 248.314 44 245 44H65C61.6863 44 59 41.3137 59 38Z" fill="#FFAC30"/>
<path d="M59.5 38C59.5 34.9624 61.9624 32.5 65 32.5H245C248.038 32.5 250.5 34.9624 250.5 38C250.5 41.0376 248.038 43.5 245 43.5H65C61.9624 43.5 59.5 41.0376 59.5 38Z" stroke="white"/>
</g>
<path d="M146.303 33.5455H145.158L142.794 35.1151V36.2784L145.102 34.7457H145.158V43H146.303V33.5455ZM152.105 43.1293C154.192 43.1293 155.392 41.3612 155.392 38.2727C155.392 35.2074 154.174 33.4162 152.105 33.4162C150.037 33.4162 148.819 35.2074 148.819 38.2727C148.819 41.3612 150.019 43.1293 152.105 43.1293ZM152.105 42.1136C150.73 42.1136 149.926 40.7333 149.926 38.2727C149.926 35.8168 150.739 34.4134 152.105 34.4134C153.472 34.4134 154.284 35.8168 154.284 38.2727C154.284 40.7333 153.481 42.1136 152.105 42.1136ZM160.23 43.1293C162.317 43.1293 163.517 41.3612 163.517 38.2727C163.517 35.2074 162.299 33.4162 160.23 33.4162C158.162 33.4162 156.944 35.2074 156.944 38.2727C156.944 41.3612 158.144 43.1293 160.23 43.1293ZM160.23 42.1136C158.855 42.1136 158.051 40.7333 158.051 38.2727C158.051 35.8168 158.864 34.4134 160.23 34.4134C161.597 34.4134 162.409 35.8168 162.409 38.2727C162.409 40.7333 161.606 42.1136 160.23 42.1136ZM170.091 41.2273C170.091 42.2614 170.738 43.1293 171.938 43.1293C173.12 43.1293 173.766 42.2614 173.766 41.2273V40.7287C173.766 39.6946 173.138 38.8267 171.938 38.8267C170.756 38.8267 170.091 39.6946 170.091 40.7287V41.2273ZM165.382 35.8168C165.382 36.8509 166.029 37.7188 167.229 37.7188C168.411 37.7188 169.057 36.8509 169.057 35.8168V35.3182C169.057 34.2841 168.429 33.4162 167.229 33.4162C166.047 33.4162 165.382 34.2841 165.382 35.3182V35.8168ZM165.733 43H166.786L173.286 33.5455H172.233L165.733 43ZM171.033 40.7287C171.033 40.1562 171.292 39.6207 171.938 39.6207C172.603 39.6207 172.824 40.1562 172.824 40.7287V41.2273C172.824 41.7997 172.584 42.3352 171.938 42.3352C171.273 42.3352 171.033 41.7997 171.033 41.2273V40.7287ZM166.324 35.3182C166.324 34.7457 166.583 34.2102 167.229 34.2102C167.894 34.2102 168.115 34.7457 168.115 35.3182V35.8168C168.115 36.3892 167.875 36.9247 167.229 36.9247C166.564 36.9247 166.324 36.3892 166.324 35.8168V35.3182Z" fill="white"/>
<defs>
<filter id="filter0_d" x="22" y="24" width="35" height="34.9999" filterUnits="userSpaceOnUse" color-interpolation-filters="sRGB">
<feFlood flood-opacity="0" result="BackgroundImageFix"/>
<feColorMatrix in="SourceAlpha" type="matrix" values="0 0 0 0 0 0 0 0 0 0 0 0 0 0 0 0 0 0 127 0"/>
<feOffset dx="2" dy="2"/>
<feGaussianBlur stdDeviation="1"/>
<feColorMatrix type="matrix" values="0 0 0 0 0 0 0 0 0 0 0 0 0 0 0 0 0 0 0.25 0"/>
<feBlend mode="normal" in2="BackgroundImageFix" result="effect1_dropShadow"/>
<feBlend mode="normal" in="SourceGraphic" in2="effect1_dropShadow" result="shape"/>
</filter>
<filter id="filter1_d" x="29" y="68" width="24.0035" height="35" filterUnits="userSpaceOnUse" color-interpolation-filters="sRGB">
<feFlood flood-opacity="0" result="BackgroundImageFix"/>
<feColorMatrix in="SourceAlpha" type="matrix" values="0 0 0 0 0 0 0 0 0 0 0 0 0 0 0 0 0 0 127 0"/>
<feOffset dx="2" dy="2"/>
<feGaussianBlur stdDeviation="1"/>
<feColorMatrix type="matrix" values="0 0 0 0 0 0 0 0 0 0 0 0 0 0 0 0 0 0 0.25 0"/>
<feBlend mode="normal" in2="BackgroundImageFix" result="effect1_dropShadow"/>
<feBlend mode="normal" in="SourceGraphic" in2="effect1_dropShadow" result="shape"/>
</filter>
<filter id="filter2_d" x="59" y="76" width="196" height="16" filterUnits="userSpaceOnUse" color-interpolation-filters="sRGB">
<feFlood flood-opacity="0" result="BackgroundImageFix"/>
<feColorMatrix in="SourceAlpha" type="matrix" values="0 0 0 0 0 0 0 0 0 0 0 0 0 0 0 0 0 0 127 0"/>
<feOffset dx="2" dy="2"/>
<feGaussianBlur stdDeviation="1"/>
<feColorMatrix type="matrix" values="0 0 0 0 0 0 0 0 0 0 0 0 0 0 0 0 0 0 0.25 0"/>
<feBlend mode="normal" in2="BackgroundImageFix" result="effect1_dropShadow"/>
<feBlend mode="normal" in="SourceGraphic" in2="effect1_dropShadow" result="shape"/>
</filter>
<filter id="filter3_d" x="59" y="32" width="196" height="16" filterUnits="userSpaceOnUse" color-interpolation-filters="sRGB">
<feFlood flood-opacity="0" result="BackgroundImageFix"/>
<feColorMatrix in="SourceAlpha" type="matrix" values="0 0 0 0 0 0 0 0 0 0 0 0 0 0 0 0 0 0 127 0"/>
<feOffset dx="2" dy="2"/>
<feGaussianBlur stdDeviation="1"/>
<feColorMatrix type="matrix" values="0 0 0 0 0 0 0 0 0 0 0 0 0 0 0 0 0 0 0.25 0"/>
<feBlend mode="normal" in2="BackgroundImageFix" result="effect1_dropShadow"/>
<feBlend mode="normal" in="SourceGraphic" in2="effect1_dropShadow" result="shape"/>
</filter>
</defs>
</svg>
