<svg width="238" height="38" viewBox="0 0 238 38" fill="none" xmlns="http://www.w3.org/2000/svg">
<g filter="url(#filter0_d)">
<path d="M7.72986 0H13.3741C14.7059 0.185741 15.7455 1.39148 15.8492 2.7137C15.7707 3.9037 15.4629 5.05907 15.3372 6.24278C16.8888 4.97093 18.274 3.51648 19.8005 2.2163C20.7805 1.41352 21.5657 0.251852 22.888 0H30.5299C31.7706 0.195185 33.0081 1.46074 32.5527 2.77352C32.38 3.79352 31.4282 4.32556 30.7561 4.99611C28.2873 7.35722 25.74 9.63333 23.2744 12.0007C21.3364 13.6441 19.6403 15.5581 17.6427 17.1354C20.9595 21.6089 24.3203 26.0541 27.6309 30.5339C28.6171 31.8656 27.144 33.5844 25.7651 33.7356C23.4628 33.8174 21.1574 33.7356 18.8551 33.7702C18.073 33.7356 17.1024 33.8646 16.5716 33.1469C14.9697 31.1824 13.5029 29.1109 11.9136 27.137C11.6058 28.5506 11.4801 29.9987 11.1755 31.4154C10.8959 32.7533 9.58301 33.9024 8.18529 33.767C6.49233 33.7702 4.79936 33.7702 3.10953 33.767C1.56419 33.9748 0.201023 32.3315 0.332943 30.8707C1.90655 21.4294 3.4142 11.9756 5.00038 2.53741C5.15743 1.16167 6.49233 0.299074 7.72986 0ZM7.56339 1.56463C7.21788 1.87 6.87552 2.17852 6.5363 2.49333C4.95641 12.0826 3.42677 21.6813 1.79662 31.2611C2.03847 31.5854 2.28033 31.9065 2.52218 32.2307C4.59834 32.2402 6.67136 32.2119 8.74752 32.2496C9.14328 31.8341 9.74006 31.4941 9.74634 30.8456C10.0604 28.9693 10.3274 27.0835 10.6729 25.2135C10.8237 24.4674 10.8708 23.7024 10.764 22.9469C12.9501 26.1328 15.4629 29.0826 17.7275 32.215C20.3941 32.2654 23.0639 32.193 25.7337 32.2559C25.8688 31.9411 26.6258 31.6704 26.2645 31.2957C22.7718 26.4917 19.1472 21.782 15.6356 16.9906C20.1648 12.7878 24.6784 8.56926 29.2013 4.36019C29.9143 3.69907 30.6807 3.07889 31.2398 2.26981C31.1047 2.10296 30.8346 1.76296 30.6964 1.59296C28.0455 1.61185 25.3694 1.46389 22.7278 1.65593C19.3953 4.59944 16.1413 7.6437 12.859 10.6502C13.7071 8.03407 13.8358 5.24482 14.3572 2.5563C14.0997 2.22574 13.8421 1.89519 13.5846 1.56778C11.5775 1.57722 9.57045 1.58037 7.56339 1.56463Z" fill="white"/>
<path d="M49.0364 1.01688C49.7305 0.229847 50.9366 0.0535507 51.8286 0.607625C52.1867 0.947625 52.46 1.36318 52.7866 1.73151C52.8243 2.4367 52.7961 3.14503 52.6359 3.83133C51.0591 13.1971 49.5986 22.5848 47.9841 31.9443C47.3779 32.8667 46.4671 33.8678 45.2547 33.7576C42.1294 33.7419 38.9979 33.8363 35.8758 33.701C34.9649 33.0115 34.3525 32.0324 33.6615 31.1415C31.5539 28.3617 29.3992 25.6197 27.3168 22.8178C27.2854 22.0623 27.166 21.1934 27.7031 20.5763C28.4883 19.6571 29.4338 18.8952 30.3352 18.0924C36.5605 12.3943 42.7796 6.68355 49.0364 1.01688ZM29.2579 21.1398C28.8401 21.4326 28.5763 22.078 28.9877 22.4967C31.4471 25.7582 33.963 28.9787 36.4349 32.2339C39.5005 32.2339 42.566 32.2276 45.6316 32.2371C45.9362 31.9726 46.2409 31.7113 46.5456 31.45C48.1475 21.7128 49.7556 11.9756 51.3324 2.23207C51.1376 2.10614 50.7482 1.85114 50.5566 1.72207C43.4204 8.15374 36.3721 14.6861 29.2579 21.1398Z" fill="white"/>
<path d="M64.9452 0.572971C66.3932 -0.421844 68.4694 1.18686 68.1458 2.83334C66.99 9.52316 65.9943 16.2445 64.7913 22.9248C68.5981 22.9154 72.4081 22.8241 76.2118 22.9752C78.4607 25.3583 80.2699 28.1193 82.2958 30.6913C82.3649 31.5413 82.4559 32.5235 81.9031 33.2444C81.2593 33.8867 80.2981 33.745 79.4752 33.7702C71.1172 33.7167 62.7591 33.852 54.4042 33.7009C53.5593 32.9832 52.5322 32.0041 52.7898 30.7763C54.1027 23.2743 55.1832 15.7313 56.5652 8.24501C57.7964 6.95112 59.1313 5.75797 60.4568 4.56168C61.9896 3.27408 63.3214 1.75038 64.9452 0.572971ZM57.9598 8.92501C56.6751 16.3609 55.5475 23.822 54.2472 31.2548C54.4922 31.5791 54.734 31.9065 54.979 32.2339C63.6009 32.2307 72.2228 32.2339 80.8478 32.2307C80.8195 31.7365 80.8635 31.1887 80.4803 30.8078C78.847 28.6859 77.22 26.5578 75.5899 24.4328C71.4093 24.4454 67.2255 24.4202 63.0449 24.4422C64.2134 17.2235 65.4132 10.008 66.5911 2.79242C66.7921 2.26667 66.3084 1.9676 65.9974 1.65279C63.2522 4.0013 60.6484 6.51353 57.9598 8.92501Z" fill="white"/>
<path d="M90.7951 1.96131C91.5584 1.32539 92.2054 0.327425 93.2985 0.295943C94.7213 0.059832 96.1379 1.62131 95.7013 3.01594C94.5863 9.66798 93.5435 16.3295 92.4002 22.9752C95.7296 22.9406 99.0558 22.9721 102.385 22.9563C103.064 22.9469 103.874 22.9658 104.32 23.5702C106.208 25.8778 108.095 28.1854 109.945 30.5213C110.947 31.9695 109.317 33.8458 107.775 33.7576C101.678 33.7734 95.5851 33.7702 89.4885 33.7576C88.2416 33.7734 87.2176 32.9391 86.3444 32.1426C84.6923 30.4206 83.3417 28.4404 82.0162 26.4602C81.699 26.0163 81.5388 25.4906 81.3629 24.9837C82.324 19.698 83.0998 14.3776 84.017 9.08242C84.1269 8.42131 84.3499 7.74446 84.8996 7.31631C86.9035 5.57224 88.8006 3.71483 90.7951 1.96131ZM93.0974 1.95817C90.9051 3.86594 88.8101 5.88705 86.6397 7.82317C86.1654 8.27335 85.5341 8.68576 85.5027 9.40668C84.6295 14.6043 83.8254 19.8145 82.924 25.0089C84.2369 27.0584 85.6 29.0984 87.2773 30.8739C87.9589 31.5665 88.7755 32.3378 89.8309 32.2339C95.9149 32.2308 102.002 32.2308 108.089 32.2308C108.328 31.9946 108.567 31.7554 108.808 31.5161C106.889 29.1896 105.014 26.8254 103.098 24.4958C98.9396 24.4863 94.781 24.5272 90.6224 24.4737C91.8756 17.0567 93.0221 9.62076 94.3099 2.21002C93.9518 2.03372 93.4869 1.58354 93.0974 1.95817Z" fill="white"/>
<path d="M112.823 2.17854C113.36 1.19947 114.362 0.157433 115.59 0.292804C120.411 0.302248 125.232 0.277063 130.054 0.305396C130.908 0.236137 131.492 0.941322 131.935 1.5678C133.32 3.42521 134.771 5.2354 136.141 7.1054C136.59 7.67206 136.386 8.40873 136.317 9.0541C135.673 9.60817 135.076 10.4519 134.131 10.3984C129.912 10.4456 125.694 10.3669 121.476 10.4361C121.448 10.5652 121.391 10.8297 121.363 10.9619C122.321 11.0437 123.527 11.0154 124.127 11.9252C125.323 13.5434 126.596 15.1048 127.783 16.7293C128.631 17.806 128.116 19.3548 127.142 20.1608C124.702 20.3056 122.252 20.1891 119.811 20.2332C119.714 21.2595 119.525 22.2732 119.321 23.2837C123.112 23.3121 126.9 23.2869 130.691 23.2963C131.502 23.29 132.322 23.6552 132.786 24.3415C134.272 26.306 135.792 28.2452 137.278 30.2097C137.884 30.9621 137.777 32.045 137.419 32.8761C137.071 33.6443 136.157 33.7985 135.4 33.7671C130.883 33.7608 126.366 33.7765 121.853 33.7608C121.152 33.7954 120.455 33.5719 120.047 32.9737C116.903 28.878 113.771 24.776 110.627 20.6834C110.269 20.2584 110.124 19.7106 109.942 19.2006C111.001 13.5465 111.767 7.83577 112.823 2.17854ZM115.084 1.8354C114.808 2.10614 114.534 2.37688 114.261 2.64762C113.347 8.05299 112.477 13.4647 111.591 18.8732C111.412 19.3108 111.805 19.6476 112.015 19.9782C114.786 23.5891 117.569 27.1969 120.323 30.8235C120.706 31.2832 120.998 31.8719 121.514 32.1961C126.369 32.2811 131.232 32.2087 136.091 32.2276C136.116 31.9884 136.166 31.5067 136.191 31.2674C134.504 29.1676 132.906 26.9954 131.254 24.8704C126.684 24.8672 122.113 24.8767 117.543 24.8672C117.861 22.7989 118.26 20.7463 118.536 18.6748C121.243 18.7189 123.954 18.6874 126.665 18.6937C126.655 18.1932 126.649 17.6643 126.281 17.2802C125.107 15.7124 123.885 14.1793 122.713 12.6084C121.658 12.5895 120.603 12.5895 119.547 12.5926C119.761 11.3522 119.971 10.1119 120.163 8.86836C124.874 8.87466 129.586 8.87151 134.3 8.86836C134.482 8.69521 134.853 8.34892 135.035 8.17577C133.408 6.06336 131.822 3.91632 130.173 1.8228C125.141 1.84799 120.113 1.8228 115.084 1.8354Z" fill="white"/>
<path d="M146.481 1.34738C147.065 0.85942 147.709 0.258124 148.526 0.295902C156.19 0.302198 163.853 0.273865 171.517 0.311643C173.267 0.339976 174.206 2.74201 172.987 3.98868C170.584 6.21757 168.144 8.40868 165.729 10.625C165.173 11.1633 164.356 11.0815 163.649 11.1035C162.057 11.1003 160.467 11.0972 158.881 11.1003C157.694 18.105 156.588 25.1222 155.411 32.13C155.329 32.7722 154.883 33.2476 154.468 33.7009C153.517 33.7481 152.292 33.9779 151.641 33.087C150.099 31.0816 148.57 29.07 147.037 27.0583C146.437 26.3878 146.019 25.4779 146.289 24.5681C147.062 20.0757 147.684 15.5518 148.56 11.0783C146.255 11.1003 143.946 11.1318 141.641 11.0689C140.541 11.1066 140.073 9.9859 139.451 9.28701C139.404 8.73923 139.392 8.19146 139.429 7.64368C141.697 5.45257 144.166 3.48498 146.481 1.34738ZM140.761 8.44646C141.05 8.82109 141.342 9.19257 141.634 9.56405C144.524 9.5672 147.414 9.5609 150.303 9.5672C149.433 14.8592 148.532 20.145 147.715 25.4465C149.477 27.6848 151.17 29.9798 152.92 32.2307C153.158 32.2307 153.633 32.2339 153.871 32.237C155.068 24.6752 156.35 17.129 157.565 9.57035C159.915 9.55775 162.261 9.5672 164.61 9.5672C166.988 7.38553 169.391 5.22905 171.75 3.03164C172.372 2.64757 171.875 1.70942 171.216 1.83849C163.577 1.81961 155.935 1.83849 148.296 1.8322C145.78 4.03275 143.261 6.23016 140.761 8.44646Z" fill="white"/>
<path d="M178.522 0.702061C179.175 0.100765 180.117 0.267617 180.928 0.229839C186.66 0.280209 192.395 0.147987 198.127 0.299098C198.991 1.00428 199.952 2.00854 199.732 3.23002C198.592 10.0048 197.509 16.7859 196.384 23.5639C196.211 24.5524 196.167 25.7109 195.31 26.3815C192.797 28.7017 190.272 31.0124 187.734 33.3043C187.081 33.9087 186.12 33.723 185.312 33.7702C179.684 33.7167 174.052 33.8521 168.427 33.701C167.566 33.0178 166.592 32.0419 166.796 30.8393C167.968 23.9291 169.077 17.0063 170.214 10.0898C170.409 9.12965 170.415 7.98058 171.25 7.31947C173.691 5.13151 176.094 2.89947 178.522 0.702061ZM172.007 8.73299C170.713 16.2319 169.576 23.7622 168.263 31.258C168.496 31.5854 168.731 31.9097 168.973 32.2339C174.859 32.2339 180.745 32.2213 186.635 32.2402C189.166 29.9169 191.714 27.6093 194.245 25.2859C194.657 24.9648 194.691 24.4108 194.788 23.9354C195.897 17 197.066 10.071 198.187 3.13558C198.344 2.59095 197.801 2.20058 197.59 1.75669C191.604 1.78188 185.617 1.76614 179.63 1.76614C177.086 4.08317 174.545 6.40965 172.007 8.73299Z" fill="white"/>
<path d="M205.505 0.324286C206.711 0.122805 208.304 -0.207751 209.177 0.906694C213.549 6.57336 217.89 12.2652 222.24 17.9508C222.912 13.0113 223.855 8.10651 224.593 3.17651C224.728 2.30132 225.051 1.39466 225.786 0.846879C226.707 -0.0220101 228.337 0.132249 229.084 1.16169C230.419 2.94355 231.682 4.78521 233.007 6.57651C233.479 7.19984 233.978 7.94595 233.79 8.76762C232.929 14.2265 231.993 19.6728 231.126 25.1285C230.903 26.2965 230.831 27.5054 230.325 28.601C230.514 30.515 230.08 32.6967 228.261 33.6978C226.518 33.8269 224.772 33.7387 223.026 33.7702C222.234 33.7356 221.245 33.8772 220.723 33.1343C217.46 28.9 214.225 24.6437 210.964 20.4063C210.49 23.6269 209.912 26.8317 209.413 30.046C209.262 30.9243 209.146 31.8089 208.86 32.6558C208.618 32.895 208.376 33.1374 208.144 33.3798C207.198 33.4491 206.014 33.638 205.348 32.7911C203.844 30.8393 202.361 28.8717 200.847 26.9261C200.505 26.413 199.993 25.8778 200.078 25.2104C200.797 20.9226 201.498 16.6285 202.198 12.3376C202.308 11.4467 202.471 10.5495 202.848 9.7278C202.801 7.28799 203.498 4.90484 203.838 2.49966C203.853 1.44817 204.883 0.994842 205.505 0.324286ZM206.218 1.70003C205.933 1.9928 205.647 2.28558 205.364 2.57836C204.99 4.77262 204.601 6.96688 204.287 9.17058C210.185 16.8521 216.068 24.5493 221.964 32.2339C223.874 32.2339 225.783 32.2182 227.696 32.2434C228.686 31.5193 228.949 30.175 228.767 29.0385C221.841 19.8869 214.818 10.8013 207.845 1.68114C207.302 1.68743 206.759 1.69373 206.218 1.70003ZM226.154 3.12929C225.224 8.91873 224.26 14.7019 223.314 20.4913C223.126 21.0297 223.569 21.4389 223.845 21.8387C225.318 23.7402 226.795 25.6448 228.236 27.5715C228.544 27.581 228.852 27.5935 229.163 27.603C230.218 21.1524 231.296 14.705 232.326 8.24817C230.806 6.21132 229.377 4.10206 227.847 2.07151C227.172 1.31595 226.182 2.36429 226.154 3.12929ZM204.023 10.666C203.2 15.555 202.455 20.4598 201.589 25.3395C203.247 27.5432 204.94 29.7154 206.605 31.9128C206.847 31.916 207.333 31.9223 207.575 31.9254C208.323 27.0426 209.165 22.1756 209.95 17.2991C208.323 15.2087 206.737 13.0837 205.106 10.9965C204.868 10.6219 204.384 10.7447 204.023 10.666Z" fill="white"/>
<path d="M179.172 9.33113C182.796 9.32169 186.421 9.32798 190.046 9.32798C189.276 14.3934 188.362 19.4335 187.596 24.4989C183.949 24.4769 180.302 24.543 176.656 24.4643C177.551 19.4304 178.311 14.3713 179.172 9.33113ZM178.446 22.9658C181.047 22.9563 183.648 22.9595 186.251 22.9626C186.996 18.933 187.549 14.8624 188.302 10.8328C185.67 10.9335 183.032 10.8832 180.4 10.858C179.863 14.9097 179.134 18.9393 178.446 22.9658Z" fill="white"/>
<path d="M33.6049 25.3898C36.6234 22.5816 39.6889 19.8207 42.7293 17.0346C42.2676 19.8176 41.8185 22.6037 41.3505 25.3898C38.7686 25.3741 36.1868 25.3709 33.6049 25.3898ZM37.4777 23.8913C38.354 23.8346 39.2335 23.8346 40.1098 23.8692C40.1663 22.95 40.3579 22.0465 40.5181 21.1429C39.4628 22.0118 38.5205 23.0098 37.4777 23.8913Z" fill="white"/>
<path d="M7.56338 1.56461C9.57044 1.58035 11.5775 1.5772 13.5846 1.56776C13.8421 1.89516 14.0997 2.22572 14.3572 2.55627C13.8358 5.24479 13.7071 8.03405 12.859 10.6502C16.1413 7.64368 19.3953 4.59942 22.7278 1.6559C25.3694 1.46387 28.0455 1.61183 30.6964 1.59294C30.8346 1.76294 31.1047 2.10294 31.2398 2.26979C30.6807 3.07887 29.9143 3.69905 29.2013 4.36016C24.6784 8.56924 20.1648 12.7878 15.6356 16.9905C19.1472 21.782 22.7718 26.4916 26.2645 31.2957C26.6258 31.6703 25.8688 31.9411 25.7337 32.2559C23.0639 32.1929 20.3941 32.2653 17.7275 32.215C15.4628 29.0826 12.9501 26.1328 10.764 22.9468C10.8708 23.7024 10.8237 24.4674 10.6729 25.2135C10.3274 27.0835 10.0604 28.9692 9.74634 30.8455C9.74006 31.4941 9.14328 31.8341 8.74752 32.2496C6.67136 32.2118 4.59833 32.2402 2.52217 32.2307C2.28032 31.9065 2.03847 31.5853 1.79662 31.2611C3.42676 21.6813 4.9564 12.0826 6.53629 2.49331C6.87552 2.1785 7.21788 1.86998 7.56338 1.56461Z" fill="#0076C7"/>
<path d="M206.218 1.69998C206.759 1.69368 207.302 1.68739 207.845 1.68109C214.818 10.8013 221.841 19.8868 228.767 29.0385C228.949 30.175 228.686 31.5192 227.696 32.2433C225.783 32.2181 223.874 32.2339 221.964 32.2339C216.068 24.5492 210.185 16.852 204.287 9.17054C204.601 6.96683 204.99 4.77257 205.364 2.57831C205.647 2.28554 205.933 1.99276 206.218 1.69998Z" fill="#0076C7"/>
<path d="M29.2579 21.1398C36.3721 14.6861 43.4203 8.15371 50.5566 1.72205C50.7482 1.85112 51.1376 2.10612 51.3324 2.23205C49.7556 11.9756 48.1475 21.7128 46.5456 31.45C46.2409 31.7113 45.9362 31.9726 45.6316 32.237C42.566 32.2276 39.5005 32.2339 36.4349 32.2339C33.963 28.9787 31.4471 25.7582 28.9877 22.4967C28.5763 22.078 28.8401 21.4326 29.2579 21.1398ZM33.6049 25.3898C36.1868 25.3709 38.7686 25.3741 41.3505 25.3898C41.8185 22.6037 42.2676 19.8176 42.7293 17.0346C39.6889 19.8208 36.6234 22.5817 33.6049 25.3898Z" fill="#0076C7"/>
<path d="M57.9598 8.92499C60.6484 6.51351 63.2522 4.00129 65.9974 1.65277C66.3084 1.96759 66.7921 2.26666 66.5911 2.7924C65.4132 10.008 64.2134 17.2235 63.0449 24.4422C67.2255 24.4202 71.4093 24.4454 75.5899 24.4328C77.22 26.5578 78.847 28.6859 80.4803 30.8078C80.8635 31.1887 80.8195 31.7365 80.8478 32.2307C72.2228 32.2339 63.6009 32.2307 54.979 32.2339C54.734 31.9065 54.4922 31.5791 54.2472 31.2548C55.5475 23.822 56.6751 16.3609 57.9598 8.92499Z" fill="#0076C7"/>
<path d="M93.0974 1.95811C93.4869 1.58348 93.9518 2.03366 94.3099 2.20996C93.0221 9.6207 91.8756 17.0566 90.6224 24.4737C94.781 24.5272 98.9396 24.4863 103.098 24.4957C105.014 26.8253 106.889 29.1896 108.808 31.5161C108.567 31.7553 108.328 31.9946 108.089 32.2307C102.002 32.2307 95.9149 32.2307 89.8309 32.2339C88.7755 32.3377 87.9589 31.5664 87.2773 30.8738C85.6 29.0983 84.2369 27.0583 82.924 25.0089C83.8254 19.8144 84.6295 14.6042 85.5027 9.40663C85.5341 8.6857 86.1654 8.27329 86.6397 7.82311C88.8101 5.887 90.9051 3.86588 93.0974 1.95811Z" fill="#0076C7"/>
<path d="M115.084 1.83535C120.113 1.82275 125.141 1.84794 130.173 1.82275C131.822 3.91627 133.408 6.06331 135.035 8.17572C134.853 8.34887 134.482 8.69516 134.3 8.86831C129.586 8.87146 124.874 8.87461 120.163 8.86831C119.971 10.1118 119.761 11.3522 119.547 12.5926C120.603 12.5894 121.658 12.5894 122.713 12.6083C123.885 14.1792 125.107 15.7124 126.281 17.2802C126.649 17.6642 126.655 18.1931 126.665 18.6937C123.954 18.6874 121.243 18.7189 118.536 18.6748C118.26 20.7463 117.861 22.7989 117.543 24.8672C122.113 24.8766 126.684 24.8672 131.254 24.8703C132.906 26.9953 134.504 29.1676 136.191 31.2674C136.166 31.5066 136.116 31.9883 136.091 32.2276C131.232 32.2087 126.369 32.2811 121.514 32.1961C120.998 31.8718 120.706 31.2831 120.323 30.8235C117.568 27.1968 114.786 23.589 112.015 19.9781C111.805 19.6476 111.412 19.3107 111.591 18.8731C112.477 13.4646 113.347 8.05294 114.261 2.64757C114.534 2.37683 114.808 2.10609 115.084 1.83535Z" fill="#0076C7"/>
<path d="M140.761 8.44647C143.261 6.23018 145.78 4.03277 148.296 1.83221C155.935 1.83851 163.577 1.81962 171.216 1.83851C171.875 1.70944 172.372 2.64758 171.75 3.03166C169.391 5.22907 166.988 7.38555 164.61 9.56721C162.261 9.56721 159.915 9.55777 157.565 9.57036C156.35 17.1291 155.068 24.6752 153.871 32.237C153.633 32.2339 153.158 32.2307 152.92 32.2307C151.17 29.9798 149.477 27.6848 147.715 25.4465C148.532 20.145 149.433 14.8593 150.303 9.56721C147.414 9.56092 144.524 9.56721 141.634 9.56407C141.342 9.19258 141.05 8.8211 140.761 8.44647Z" fill="#0076C7"/>
<path d="M172.007 8.73295C174.545 6.40962 177.086 4.08313 179.63 1.7661C185.617 1.7661 191.604 1.78184 197.59 1.75665C197.801 2.20054 198.344 2.59091 198.187 3.13554C197.066 10.0709 195.897 17 194.789 23.9354C194.691 24.4107 194.657 24.9648 194.245 25.2859C191.714 27.6092 189.166 29.9168 186.635 32.2402C180.745 32.2213 174.859 32.2339 168.973 32.2339C168.731 31.9096 168.496 31.5854 168.263 31.2579C169.576 23.7622 170.713 16.2318 172.007 8.73295ZM179.172 9.3311C178.311 14.3713 177.551 19.4304 176.656 24.4642C180.303 24.5429 183.949 24.4768 187.596 24.4989C188.362 19.4335 189.276 14.3933 190.046 9.32795C186.421 9.32795 182.796 9.32165 179.172 9.3311Z" fill="#0076C7"/>
<path d="M226.154 3.12922C226.182 2.36422 227.172 1.31588 227.847 2.07144C229.377 4.102 230.806 6.21125 232.326 8.24811C231.296 14.705 230.218 21.1524 229.163 27.6029C228.852 27.5935 228.544 27.5809 228.236 27.5714C226.795 25.6448 225.318 23.7401 223.845 21.8387C223.569 21.4388 223.126 21.0296 223.314 20.4913C224.26 14.7018 225.224 8.91866 226.154 3.12922Z" fill="#0076C7"/>
<path d="M204.023 10.6659C204.384 10.7446 204.868 10.6218 205.107 10.9964C206.737 13.0837 208.323 15.2087 209.95 17.299C209.165 22.1755 208.323 27.0426 207.575 31.9253C207.333 31.9222 206.847 31.9159 206.605 31.9128C204.94 29.7153 203.247 27.5431 201.589 25.3394C202.456 20.4598 203.2 15.555 204.023 10.6659Z" fill="#0076C7"/>
</g>
<defs>
<filter id="filter0_d" x="0" y="0" width="238" height="38" filterUnits="userSpaceOnUse" color-interpolation-filters="sRGB">
<feFlood flood-opacity="0" result="BackgroundImageFix"/>
<feColorMatrix in="SourceAlpha" type="matrix" values="0 0 0 0 0 0 0 0 0 0 0 0 0 0 0 0 0 0 127 0"/>
<feOffset dx="2" dy="2"/>
<feGaussianBlur stdDeviation="1"/>
<feColorMatrix type="matrix" values="0 0 0 0 0 0 0 0 0 0 0 0 0 0 0 0 0 0 0.25 0"/>
<feBlend mode="normal" in2="BackgroundImageFix" result="effect1_dropShadow"/>
<feBlend mode="normal" in="SourceGraphic" in2="effect1_dropShadow" result="shape"/>
</filter>
</defs>
</svg>
