<svg width="26" height="26" viewBox="0 0 26 26" fill="none" xmlns="http://www.w3.org/2000/svg">
<g clip-path="url(#clip0)">
<path d="M13.8125 3.24962C13.9419 3.24962 14.072 3.28059 14.191 3.34325C14.4576 3.48367 14.625 3.76059 14.625 4.06214L14.625 8.12462L25.1875 8.12462C25.6366 8.12462 26 8.48801 26 8.93713L26 17.0621C26 17.5113 25.6366 17.8747 25.1875 17.8747L14.625 17.8747L14.625 21.9371C14.625 22.2386 14.4576 22.5155 14.1909 22.656C13.9251 22.7981 13.6022 22.7782 13.3523 22.6068L0.352258 13.6693C0.131669 13.5178 -5.44841e-05 13.2671 -5.44607e-05 12.9997C-5.44373e-05 12.7323 0.131669 12.4815 0.352258 12.33L13.3523 3.39243C13.4904 3.29805 13.6514 3.24962 13.8125 3.24962ZM24.375 9.74965L13.8125 9.74965C13.3634 9.74965 13 9.38625 13 8.93713L13 5.60696L2.24625 12.9996L13 20.3923L13 17.0621C13 16.613 13.3634 16.2496 13.8125 16.2496L24.375 16.2496L24.375 9.74965Z" fill="white"/>
</g>
<defs>
<clipPath id="clip0">
<rect width="26" height="26" fill="white" transform="translate(26 26) rotate(-180)"/>
</clipPath>
</defs>
</svg>
