<svg width="21" height="8" viewBox="0 0 21 8" fill="none" xmlns="http://www.w3.org/2000/svg">
<path d="M4.09091 7H5.16193L2.74716 3.78693L5.07386 1.18182H4.00284L1.80398 3.6392H1.51705V1.18182H0.639205V7H1.51705V4.39205H2.13636L4.09091 7ZM5.97514 1.18182V7H6.81037V2.78693H6.86435L8.58026 6.99148H9.27344L10.9893 2.78977H11.0433V7H11.8786V1.18182H10.8132L8.96094 5.70455H8.89276L7.04048 1.18182H5.97514ZM15.3026 0.909091H14.544L12.669 7.875H13.4276L15.3026 0.909091ZM16.2088 1.18182V3.10227C16.206 4.40057 16.9929 4.91193 18.2656 4.91193C18.8253 4.91193 19.3082 4.84091 19.7259 4.72159V7H20.5952V1.18182H19.7259V3.97159C19.2912 4.08807 18.7514 4.15909 18.2656 4.15909C17.5071 4.15909 17.0753 3.90341 17.0753 3.10227V1.18182H16.2088Z" fill="white"/>
</svg>
