<svg width="22" height="35" viewBox="0 0 22 35" fill="none" xmlns="http://www.w3.org/2000/svg">
<path d="M11 0C7.60156 0 4.83661 2.75058 4.83661 6.13136V18.1817C4.83661 21.562 7.60156 24.3126 11 24.3126C14.3984 24.3126 17.1634 21.5812 17.1634 18.2238V6.13136C17.1634 2.75058 14.3984 0 11 0ZM14.5949 18.2234C14.5949 20.1719 12.9821 21.7575 11 21.7575C9.01787 21.7575 7.40468 20.1535 7.40468 18.1813V6.13136C7.40468 4.15912 9.01746 2.55473 11 2.55473C12.9825 2.55473 14.5953 4.15912 14.5949 6.13136V18.2234Z" fill="url(#paint0_linear)"/>
<path d="M14.3813 32.4453H7.61867C6.90944 32.4453 6.33463 33.0171 6.33463 33.7226C6.33463 34.4282 6.90944 35 7.61867 35H14.3813C15.0906 35 15.6654 34.4282 15.6654 33.7226C15.6654 33.0171 15.0906 32.4453 14.3813 32.4453Z" fill="url(#paint1_linear)"/>
<path fill-rule="evenodd" clip-rule="evenodd" d="M19.4319 17.3296C19.4319 16.6241 20.0067 16.0523 20.716 16.0523C21.4252 16.0523 22 16.6242 22 17.3296V18.3516C22 23.9534 17.7467 28.5857 12.284 29.2203V27.9744H9.71596V29.2203C4.25328 28.5857 0 23.9534 0 18.3516V17.3296C0 16.6241 0.574814 16.0523 1.28404 16.0523C1.99326 16.0523 2.56807 16.6241 2.56807 17.3296V18.3516C2.56807 22.9765 6.3505 26.7397 11 26.7397C15.6492 26.7397 19.4319 22.9765 19.4319 18.3516V17.3296ZM9.71596 29.2203V33.7226H12.284V29.2203C11.8628 29.2692 11.4343 29.2944 11 29.2944C10.5657 29.2944 10.1372 29.2692 9.71596 29.2203Z" fill="url(#paint2_linear)"/>
<path d="M12.284 27.9744H9.71596V29.2203C10.1372 29.2692 10.5657 29.2944 11 29.2944C11.4343 29.2944 11.8628 29.2692 12.284 29.2203V27.9744Z" fill="url(#paint3_linear)"/>
<defs>
<linearGradient id="paint0_linear" x1="11" y1="30.625" x2="11" y2="-15.4492" gradientUnits="userSpaceOnUse">
<stop offset="0.34375" stop-color="#B30A21"/>
<stop offset="1" stop-color="white"/>
</linearGradient>
<linearGradient id="paint1_linear" x1="11" y1="30.625" x2="11" y2="-15.4492" gradientUnits="userSpaceOnUse">
<stop offset="0.34375" stop-color="#B30A21"/>
<stop offset="1" stop-color="white"/>
</linearGradient>
<linearGradient id="paint2_linear" x1="11" y1="30.625" x2="11" y2="-15.4492" gradientUnits="userSpaceOnUse">
<stop offset="0.34375" stop-color="#B30A21"/>
<stop offset="1" stop-color="white"/>
</linearGradient>
<linearGradient id="paint3_linear" x1="11" y1="30.625" x2="11" y2="-15.4492" gradientUnits="userSpaceOnUse">
<stop offset="0.34375" stop-color="#B30A21"/>
<stop offset="1" stop-color="white"/>
</linearGradient>
</defs>
</svg>
