<svg width="26" height="26" viewBox="0 0 26 26" fill="none" xmlns="http://www.w3.org/2000/svg">
<g clip-path="url(#clip0)">
<path d="M12.1875 22.7504C12.0581 22.7504 11.928 22.7194 11.809 22.6568C11.5424 22.5163 11.375 22.2394 11.375 21.9379V17.8754H0.812515C0.363396 17.8754 0 17.512 0 17.0629V8.93786C0 8.48874 0.363396 8.12535 0.812515 8.12535H11.375V4.06287C11.375 3.76136 11.5424 3.48445 11.8091 3.34397C12.0749 3.20193 12.3978 3.22176 12.6477 3.39316L25.6477 12.3307C25.8683 12.4822 26 12.7329 26 13.0003C26 13.2677 25.8683 13.5185 25.6477 13.67L12.6477 22.6076C12.5096 22.702 12.3486 22.7504 12.1875 22.7504ZM1.62498 16.2504H12.1875C12.6366 16.2504 13 16.6137 13 17.0629V20.393L23.7537 13.0004L13 5.60774V8.93786C13 9.38698 12.6366 9.75038 12.1875 9.75038H1.62498V16.2504Z" fill="white"/>
</g>
<defs>
<clipPath id="clip0">
<rect width="26" height="26" fill="white"/>
</clipPath>
</defs>
</svg>
