<svg width="42" height="30" viewBox="0 0 42 30" fill="none" xmlns="http://www.w3.org/2000/svg">
<path d="M11.4187 2.86566C14.9669 1.10228 19.0327 0.413568 22.965 0.876368C25.5933 1.18837 28.161 1.99668 30.4894 3.25681C30.6795 3.33424 30.8425 3.48561 30.8852 3.69419C31.2775 3.2649 31.6606 2.82695 32.0517 2.3965C32.3897 2.00304 33.0779 2.00246 33.413 2.39939C33.6851 2.68597 33.7233 3.14357 33.5297 3.4833C33.272 3.96228 33.0109 4.44126 32.7266 4.90521C32.8855 4.83877 33.0588 4.89308 33.1877 4.99535C36.0338 7.14815 38.3328 10.0209 39.798 13.2755C40.927 15.794 41.5833 18.5263 41.6972 21.2846C41.7157 21.5371 41.562 21.8306 41.2835 21.8434C40.3186 21.8786 39.3508 21.8289 38.3871 21.893C37.6926 21.8913 36.9987 21.9086 36.3042 21.9115C36.1303 21.9052 35.9246 21.8474 35.8529 21.6706C35.7397 21.4002 35.8183 21.1026 35.8004 20.8201C35.8489 18.3842 35.3012 15.946 34.2658 13.7429C33.4217 11.9616 32.2615 10.3282 30.8488 8.95255C30.7679 8.87571 30.7038 8.78442 30.6431 8.69255C28.5013 12.5215 26.3757 16.3585 24.2119 20.1747C24.0894 20.4538 23.8687 20.6861 23.7872 20.9819C23.6682 22.42 23.5278 23.8563 23.4122 25.295C23.7976 25.7052 24.0853 26.2166 24.1893 26.7724C24.2009 27.1589 24.1905 27.5905 23.9241 27.8996C23.7017 28.203 23.3204 28.3168 22.9673 28.3815C22.467 28.3376 21.9557 28.17 21.5755 27.832C21.3796 27.9505 21.1641 28.0285 20.9503 28.1076C20.8752 28.4502 20.8117 28.8033 20.6169 29.1031C20.3841 29.5215 19.9386 29.8606 19.4423 29.8369C18.9772 29.8473 18.5653 29.5515 18.296 29.1933C18.1279 28.909 17.973 28.6039 17.9228 28.2752C16.5771 27.3317 15.2245 26.3997 13.8841 25.451C13.6732 25.347 13.794 25.1014 13.7997 24.9223C13.9523 23.1514 14.1135 21.3811 14.2666 19.6102C14.2891 19.4993 14.262 19.3468 14.3746 19.2798C14.7115 19.0833 15.0778 18.9452 15.4268 18.7742C16.4333 18.29 17.4594 17.848 18.4636 17.3598C18.6427 17.2754 18.8478 17.2258 18.9888 17.0773C22.0371 13.6164 25.0982 10.167 28.1772 6.73388C27.9484 6.70153 27.7641 6.55824 27.5705 6.44615C25.6141 5.29753 23.4226 4.54064 21.1687 4.26561C19.2349 4.00446 17.2618 4.09748 15.3505 4.48228C13.0169 4.97744 10.7861 5.95273 8.83605 7.3261C6.62085 8.88437 4.76561 10.9476 3.44539 13.3119C2.45681 15.1076 1.74845 17.0617 1.40525 19.085C1.25157 19.8893 1.2221 20.7098 1.10712 21.5186C1.0557 21.8289 0.584809 21.8948 0.432276 21.6273C0.25952 21.2257 0.322499 20.7797 0.29361 20.3544C0.316143 18.1248 0.751209 15.905 1.51965 13.814C2.43254 11.3446 3.86139 9.07273 5.65423 7.14815C7.29917 5.3917 9.26592 3.93917 11.4187 2.86566ZM14.4417 2.19197C11.6325 3.08868 9.02499 4.61806 6.88259 6.64548C4.58072 8.81504 2.80983 11.5491 1.80045 14.5483C1.28276 16.0997 0.95401 17.7163 0.850587 19.3485C1.47921 15.125 3.61641 11.1394 6.80401 8.29619C9.8385 5.53441 13.8367 3.85019 17.9355 3.63064C21.0012 3.45615 24.1142 4.09113 26.8575 5.47664C27.318 5.68579 27.7392 5.97122 28.1881 6.20175C28.8948 5.37668 29.6384 4.58339 30.3519 3.7641C28.3418 2.66921 26.1549 1.89441 23.8929 1.52752C20.7493 1.00752 17.4813 1.22824 14.4417 2.19197ZM32.5319 2.6565C32.1725 2.98815 31.8721 3.37757 31.5375 3.73348C27.5358 8.21299 23.5347 12.6919 19.5613 17.1969C19.5556 17.2564 19.5498 17.3165 19.544 17.3771C19.4077 17.4338 19.3025 17.5401 19.1997 17.6423C19.0096 17.8578 18.6981 17.8648 18.463 18.0098C18.1926 18.175 17.8783 18.245 17.6044 18.4038C17.0064 18.6893 16.4148 18.9886 15.8081 19.2572C15.4897 19.4392 15.1229 19.5242 14.8241 19.7408C14.6797 20.923 14.6052 22.1109 14.496 23.2982C14.4677 23.895 14.359 24.4873 14.3619 25.0847C14.489 25.195 14.6306 25.2886 14.7837 25.3591C14.983 25.5105 15.161 25.6919 15.3921 25.7965C16.1998 26.3702 17.0122 26.9319 17.8089 27.5206C17.8465 27.3282 17.8719 27.1335 17.8852 26.9382C17.9823 26.5355 18.166 26.1466 18.452 25.8433C18.7993 25.5209 19.3331 25.3874 19.7774 25.5798C20.0259 25.4406 20.3038 25.3614 20.5638 25.2447C20.7036 24.8617 21.0647 24.5728 21.464 24.5144C21.9585 24.4231 22.4566 24.6069 22.8772 24.8576C22.9668 23.5848 23.1008 22.3154 23.2031 21.0431C23.2077 20.7531 23.3521 20.4948 23.5041 20.2568C23.5763 20.1383 23.7127 20.0719 23.7601 19.935C26.8933 14.3871 29.9839 8.81562 33.0785 3.24641C33.1645 3.09677 33.1709 2.89455 33.0525 2.75993C32.9392 2.59584 32.6977 2.58544 32.5319 2.6565ZM32.8658 5.39228C32.2967 6.43748 31.7172 7.47748 31.1365 8.51575C32.7168 10.0388 33.9994 11.8698 34.8875 13.877C35.9292 16.2291 36.4313 18.8245 36.3019 21.3956C37.1703 21.369 38.0404 21.4008 38.9077 21.3476C39.6692 21.3482 40.4313 21.347 41.1928 21.328C41.165 21.0813 41.1552 20.8328 41.1413 20.585C40.9709 18.349 40.4486 16.1378 39.5819 14.0688C38.1687 10.6466 35.8177 7.62424 32.8658 5.39228ZM20.9804 25.6509C20.5251 25.752 20.1305 26.0409 19.6757 26.1386C19.4221 25.8734 18.9795 26.0351 18.7686 26.2772C18.6069 26.5187 18.3752 26.7886 18.4509 27.0994C18.2273 27.5986 18.4035 28.1689 18.5722 28.6571C18.6178 28.7149 18.6664 28.7715 18.7184 28.8258C18.8645 29.1603 19.2563 29.392 19.6203 29.3025C19.8768 29.2643 20.053 29.0442 20.179 28.8356C20.3517 28.5641 20.4049 28.2394 20.428 27.9239C20.4234 27.7662 20.5927 27.6991 20.7134 27.6466C21.0249 27.5299 21.327 27.3889 21.6385 27.2716C21.7806 27.2993 21.8649 27.4455 21.9944 27.5079C22.2931 27.7228 22.6525 27.8661 23.0251 27.8453C23.3412 27.8078 23.6485 27.5645 23.6693 27.2306C23.741 26.8076 23.5671 26.4009 23.3498 26.049C23.0373 25.5972 22.6074 25.1991 22.0614 25.0627C21.624 24.8559 21.0179 25.1459 20.9804 25.6509Z" fill="white"/>
</svg>
