<svg width="20" height="20" viewBox="0 0 20 20" fill="none" xmlns="http://www.w3.org/2000/svg">
<g clip-path="url(#clip0)">
<path d="M17.0833 5.37238H2.91668C1.30832 5.37238 0 6.6807 0 8.28901V16.6223C0 18.2307 1.30832 19.539 2.91668 19.539H17.0834C18.6917 19.539 20 18.2307 20 16.6223V8.28901C20 6.6807 18.6917 5.37238 17.0833 5.37238ZM19.1667 16.6224C19.1667 17.7707 18.2325 18.7057 17.0834 18.7057H2.91668C1.7675 18.7057 0.833359 17.7707 0.833359 16.6224V8.28901C0.833359 7.14069 1.76754 6.2057 2.91668 6.2057H17.0834C18.2325 6.2057 19.1667 7.14069 19.1667 8.28901V16.6224Z" fill="#FFBD3E"/>
<path d="M16.25 11.2057C15.5608 11.2057 15 11.7665 15 12.4557C15 13.1449 15.5608 13.7057 16.25 13.7057C16.9392 13.7057 17.5 13.1449 17.5 12.4557C17.5 11.7665 16.9392 11.2057 16.25 11.2057ZM16.25 12.8724C16.0208 12.8724 15.8333 12.6857 15.8333 12.4557C15.8333 12.2257 16.0208 12.039 16.25 12.039C16.4792 12.039 16.6667 12.2257 16.6667 12.4557C16.6667 12.6857 16.4792 12.8724 16.25 12.8724Z" fill="#FFBD3E"/>
<path d="M19.5833 9.53903H16.25C14.6417 9.53903 13.3333 10.8474 13.3333 12.4557C13.3333 14.064 14.6416 15.3724 16.25 15.3724H19.5833C19.8133 15.3724 20 15.1857 20 14.9557V9.95571C20 9.72571 19.8133 9.53903 19.5833 9.53903ZM19.1667 14.539H16.25C15.1008 14.539 14.1667 13.604 14.1667 12.4557C14.1667 11.3074 15.1009 10.3724 16.25 10.3724H19.1667V14.539Z" fill="#FFBD3E"/>
<path d="M17.0392 5.60238L15.275 2.07402C14.9192 1.36234 14.305 0.838197 13.5467 0.598197C12.7884 0.359018 11.985 0.434018 11.2834 0.810697L2.71918 5.42238C2.51668 5.5307 2.44086 5.78406 2.55 5.98656C2.65918 6.18906 2.9125 6.26488 3.11418 6.15574L11.68 1.5457C12.18 1.2757 12.7558 1.22152 13.2958 1.3932C13.8375 1.56402 14.2758 1.93902 14.53 2.44738L16.2942 5.9757C16.3675 6.12152 16.5142 6.2057 16.6667 6.2057C16.7292 6.2057 16.7925 6.19152 16.8525 6.16152C17.0583 6.0582 17.1417 5.8082 17.0392 5.60238Z" fill="#FFBD3E"/>
<path d="M15.3675 2.25901C15.2575 2.05569 15.0042 1.98069 14.8025 2.08901L8.61168 5.42233C8.40918 5.53151 8.33336 5.78401 8.4425 5.98651C8.5175 6.12651 8.66082 6.20569 8.80918 6.20569C8.87586 6.20569 8.94418 6.18987 9.0075 6.15651L15.1983 2.82319C15.4008 2.71401 15.4767 2.46151 15.3675 2.25901Z" fill="#FFBD3E"/>
<path d="M7.5 2.87238H4.58332C2.05668 2.87238 0 4.9282 0 7.4557V8.28902C0 8.51902 0.18668 8.7057 0.41668 8.7057C0.64668 8.7057 0.833359 8.51902 0.833359 8.28902V7.4557C0.833359 5.3882 2.51586 3.7057 4.58336 3.7057H7.5C7.73 3.7057 7.91668 3.51902 7.91668 3.28902C7.91668 3.05902 7.73 2.87238 7.5 2.87238Z" fill="#FFBD3E"/>
<path d="M15.4167 2.87238C15.1867 2.87238 15 3.05906 15 3.28906C15 3.51906 15.1867 3.70573 15.4167 3.70573C17.4842 3.70573 19.1667 5.38824 19.1667 7.45574V8.28906C19.1667 8.51906 19.3534 8.70574 19.5834 8.70574C19.8134 8.70574 20 8.51906 20 8.28906V7.45574C20 4.9282 17.9433 2.87238 15.4167 2.87238Z" fill="#FFBD3E"/>
</g>
<defs>
<clipPath id="clip0">
<rect width="20" height="20" fill="white"/>
</clipPath>
</defs>
</svg>
