<svg width="38" height="37" viewBox="0 0 38 37" fill="none" xmlns="http://www.w3.org/2000/svg">
<path d="M21.2357 22.4049V19.7786C21.2357 18.7431 20.3932 17.9007 19.3577 17.9007C18.3222 17.9007 17.4797 18.7431 17.4797 19.7786V22.1498C17.4797 25.0073 16.427 27.7507 14.5154 29.8747L11.8798 32.8032C11.6583 33.0492 11.6783 33.4282 11.9244 33.6497C12.1703 33.8711 12.5493 33.8512 12.7708 33.6051L15.4064 30.6766C17.5164 28.3321 18.6784 25.3039 18.6784 22.1498V19.7786C18.6784 19.4041 18.9831 19.0994 19.3577 19.0994C19.7322 19.0994 20.0369 19.4041 20.0369 19.7786V22.4049C20.0369 25.9213 18.7343 29.2908 16.3688 31.8928L13.7997 34.7189C13.5771 34.9637 13.5951 35.3429 13.8401 35.5655C13.9549 35.67 14.0991 35.7214 14.243 35.7214C14.406 35.7214 14.5684 35.6553 14.6867 35.5252L17.2557 32.6991C19.8222 29.876 21.2357 26.2201 21.2357 22.4049Z" fill="white"/>
<path d="M23.7929 19.7786C23.7929 17.333 21.8033 15.3434 19.3577 15.3434C16.9121 15.3434 14.9225 17.333 14.9225 19.7786V22.1498C14.9225 24.3745 14.1029 26.5104 12.6147 28.164L10.7409 30.2459C10.5195 30.492 10.5395 30.8709 10.7855 31.0925C11.0316 31.3139 11.4104 31.2938 11.632 31.0479L13.5057 28.9659C15.1924 27.0918 16.1213 24.6712 16.1213 22.1498V19.7786C16.1213 17.994 17.5731 16.5421 19.3578 16.5421C21.1424 16.5421 22.5943 17.994 22.5943 19.7786V22.4049C22.5943 26.5587 21.0555 30.5392 18.2611 33.6129L16.0935 35.9975C15.8707 36.2423 15.8888 36.6215 16.1337 36.8442C16.2486 36.9486 16.3928 37 16.5367 37C16.6997 37 16.8621 36.9339 16.9803 36.8038L19.1481 34.4193C22.1433 31.1244 23.7929 26.8577 23.7929 22.4049V19.7786Z" fill="white"/>
<path d="M26.3501 19.7786C26.3501 15.9229 23.2134 12.7862 19.3577 12.7862C15.502 12.7862 12.3653 15.9229 12.3653 19.7786V22.1498C12.3653 23.7417 11.7788 25.27 10.7138 26.4532L9.0267 28.3279C8.80526 28.5739 8.82524 28.9529 9.07129 29.1744C9.31727 29.3958 9.6963 29.3757 9.91774 29.1298L11.6049 27.2552C12.8682 25.8515 13.564 24.0383 13.564 22.1498V19.7786C13.564 16.5839 16.163 13.9849 19.3577 13.9849C22.5524 13.9849 25.1514 16.5839 25.1514 19.7786V22.4049C25.1514 27.1964 23.3764 31.7877 20.1532 35.3331L19.5533 35.993C19.3307 36.2379 19.3487 36.6171 19.5937 36.8397C19.7085 36.9441 19.8528 36.9955 19.9966 36.9955C20.1596 36.9955 20.322 36.9294 20.4403 36.7993L21.0401 36.1394C24.4643 32.3728 26.3501 27.4952 26.3501 22.4049V19.7786H26.3501Z" fill="white"/>
<path d="M9.80801 19.7786C9.80801 20.1097 10.0764 20.378 10.4074 20.378C10.7384 20.378 11.0067 20.1097 11.0067 19.7786C11.0067 17.7604 11.7394 15.8108 13.07 14.289C14.3882 12.7812 16.1973 11.7952 18.1642 11.5127C18.4918 11.4656 18.7193 11.1618 18.6722 10.8342C18.6251 10.5066 18.321 10.2794 17.9937 10.3262C15.7434 10.6495 13.6742 11.7766 12.1675 13.5C10.646 15.2403 9.80801 17.4702 9.80801 19.7786Z" fill="white"/>
<path d="M11.0067 22.1498C11.0067 21.8187 10.7384 21.5505 10.4074 21.5505C10.0764 21.5505 9.80801 21.8187 9.80801 22.1498C9.80801 23.1089 9.45471 24.0296 8.81316 24.7424L7.31247 26.41C7.09102 26.656 7.111 27.0349 7.35706 27.2565C7.47165 27.3595 7.61494 27.4103 7.75782 27.4103C7.92181 27.4103 8.08523 27.3433 8.2035 27.2119L9.7042 25.5444C10.5441 24.6111 11.0067 23.4056 11.0067 22.1498Z" fill="white"/>
<path d="M27.731 27.5001C27.4106 27.4167 27.0833 27.6081 26.9993 27.9282C26.7781 28.7736 26.5028 29.6141 26.181 30.4262C26.0591 30.7339 26.2097 31.0822 26.5175 31.2041C26.5899 31.2328 26.6646 31.2464 26.7381 31.2464C26.9766 31.2464 27.2022 31.1029 27.2955 30.8677C27.6351 30.0106 27.9255 29.1238 28.159 28.2316C28.2428 27.9115 28.0511 27.5839 27.731 27.5001Z" fill="white"/>
<path d="M25.736 12.6769C25.4898 12.4554 25.1108 12.4757 24.8896 12.7218C24.6683 12.968 24.6884 13.3469 24.9346 13.5682C26.6975 15.1531 27.7086 17.4166 27.7086 19.7786V22.4049C27.7086 23.4017 27.6399 24.4061 27.5042 25.3904C27.4591 25.7184 27.6883 26.0207 28.0162 26.0659C28.0439 26.0697 28.0715 26.0716 28.0987 26.0716C28.3934 26.0716 28.6504 25.854 28.6917 25.5539C28.8347 24.5156 28.9073 23.4561 28.9073 22.4048V19.7786C28.9074 17.0771 27.7514 14.4887 25.736 12.6769Z" fill="white"/>
<path d="M22.934 12.2329C23.0172 12.2725 23.1049 12.2912 23.1913 12.2912C23.4153 12.2912 23.6302 12.165 23.7329 11.9493C23.8752 11.6505 23.7482 11.2928 23.4494 11.1506C22.5859 10.7394 21.6681 10.4621 20.7215 10.3261C20.3934 10.2794 20.0901 10.5066 20.043 10.8341C19.9959 11.1617 20.2234 11.4655 20.551 11.5126C21.378 11.6314 22.1797 11.8737 22.934 12.2329Z" fill="white"/>
<path d="M19.3577 7.67171C19.1335 7.67171 18.9067 7.67794 18.6835 7.69025C18.3529 7.70847 18.0998 7.9912 18.118 8.32164C18.1363 8.65217 18.4187 8.90669 18.7495 8.88703C18.9508 8.87593 19.1554 8.87033 19.3576 8.87033C25.3724 8.87033 30.2658 13.7637 30.2658 19.7785V22.4048C30.2658 22.7359 30.5342 23.0042 30.8652 23.0042C31.1962 23.0042 31.4645 22.7359 31.4645 22.4048V19.7786C31.4646 13.1029 26.0334 7.67171 19.3577 7.67171Z" fill="white"/>
<path d="M12.8045 10.9236C12.9225 10.9236 13.0418 10.8888 13.1461 10.8163C14.1432 10.1229 15.2384 9.60521 16.4012 9.27733C16.7198 9.1875 16.9053 8.85634 16.8155 8.53781C16.7257 8.21927 16.3944 8.03403 16.076 8.12353C14.7846 8.48762 13.5686 9.06244 12.4618 9.83201C12.19 10.021 12.1229 10.3945 12.3119 10.6662C12.4283 10.8339 12.6148 10.9236 12.8045 10.9236Z" fill="white"/>
<path d="M8.44947 22.1498V19.7786C8.44947 16.9904 9.50537 14.3351 11.4227 12.3015C11.6497 12.0606 11.6386 11.6814 11.3977 11.4543C11.1569 11.2271 10.7775 11.2384 10.5505 11.4792C8.42262 13.736 7.25076 16.6836 7.25076 19.7786V22.1498C7.25076 22.4761 7.13057 22.7893 6.91241 23.0317L6.17337 23.8528C5.95193 24.0988 5.9719 24.4778 6.21796 24.6992C6.33247 24.8024 6.47584 24.8531 6.61873 24.8531C6.78271 24.8531 6.94605 24.7862 7.0644 24.6548L7.80345 23.8337C8.22004 23.3707 8.44947 22.7727 8.44947 22.1498Z" fill="white"/>
<path d="M33.2606 15.112C32.6033 13.1584 31.5586 11.3935 30.1555 9.8663C29.9315 9.62256 29.5524 9.60642 29.3087 9.83042C29.065 10.0544 29.0489 10.4335 29.2728 10.6773C30.5616 12.0801 31.5211 13.7008 32.1246 15.4942C32.2088 15.7446 32.4423 15.9026 32.6925 15.9026C32.7559 15.9026 32.8204 15.8924 32.8838 15.8711C33.1974 15.7655 33.3662 15.4256 33.2606 15.112Z" fill="white"/>
<path d="M24.0943 5.89938C23.7812 5.79221 23.4403 5.95915 23.3332 6.27241C23.226 6.5856 23.393 6.92635 23.7062 7.03343C25.0278 7.48567 26.2686 8.1408 27.3942 8.98085C27.5018 9.06116 27.6275 9.09984 27.7522 9.09984C27.9349 9.09984 28.1153 9.01665 28.233 8.8589C28.4311 8.59367 28.3764 8.21807 28.1112 8.02013C26.8856 7.1056 25.5341 6.39197 24.0943 5.89938Z" fill="white"/>
<path d="M10.045 10.0618C12.5662 7.64445 15.8735 6.31317 19.3577 6.31317C20.0047 6.31317 20.6552 6.35976 21.2913 6.4515C21.6191 6.49929 21.9228 6.27154 21.9701 5.94389C22.0174 5.61625 21.7902 5.31242 21.4626 5.26511C20.7699 5.16522 20.0617 5.11447 19.3577 5.11447C15.5628 5.11447 11.9609 6.56418 9.21545 9.19653C6.47857 11.8207 4.87798 15.3423 4.70856 19.1125C4.6937 19.4432 4.94974 19.7234 5.28034 19.7382C5.28953 19.7386 5.29864 19.7388 5.30775 19.7388C5.62637 19.7388 5.8916 19.4879 5.90607 19.1664C6.0615 15.7052 7.53143 12.4718 10.045 10.0618Z" fill="white"/>
<path d="M19.3577 2.55724C18.0174 2.55724 16.6818 2.71259 15.3881 3.01898C15.0659 3.09521 14.8667 3.41822 14.9429 3.74028C15.0193 4.06233 15.3423 4.26163 15.6643 4.18532C16.8677 3.9005 18.1102 3.75594 19.3577 3.75594C23.7526 3.75594 27.8551 5.50693 30.9092 8.68621C31.0269 8.80872 31.184 8.87041 31.3415 8.87041C31.4909 8.87041 31.6405 8.81495 31.7567 8.70331C31.9954 8.47396 32.0031 8.09453 31.7737 7.85591C30.1824 6.19938 28.3131 4.89623 26.2179 3.98289C24.0478 3.03688 21.7397 2.55724 19.3577 2.55724Z" fill="white"/>
<path d="M5.89472 10.0215C6.00436 10.1073 6.13454 10.1489 6.26384 10.1489C6.44181 10.1489 6.61794 10.0701 6.73613 9.91912C8.44428 7.73731 10.6931 6.02596 13.2393 4.96991C13.545 4.84308 13.6901 4.49242 13.5633 4.18667C13.4365 3.88092 13.0857 3.73564 12.7801 3.86262C10.0438 4.99748 7.62741 6.83621 5.79235 9.17999C5.58825 9.44075 5.63412 9.81747 5.89472 10.0215Z" fill="white"/>
<path d="M11.0472 3.09465C11.1347 3.09465 11.2234 3.07548 11.3074 3.03488C13.8309 1.81644 16.5394 1.1987 19.3577 1.1987C20.8263 1.1987 22.2891 1.37148 23.7051 1.71223C24.0267 1.78943 24.3505 1.59156 24.4279 1.26975C24.5054 0.947935 24.3073 0.624205 23.9854 0.546769C22.4777 0.183961 20.9207 0 19.3577 0C16.3574 0 13.4736 0.657849 10.7862 1.95541C10.4882 2.09933 10.3632 2.45766 10.5071 2.75574C10.6104 2.96983 10.8244 3.09465 11.0472 3.09465Z" fill="white"/>
<path d="M26.2101 2.50794C26.828 2.75399 27.4396 3.03689 28.0278 3.34863C28.1173 3.3961 28.2133 3.41855 28.3079 3.41855C28.5228 3.41855 28.7305 3.30276 28.838 3.0997C28.993 2.80722 28.8816 2.44449 28.5891 2.28946C27.9628 1.95757 27.3116 1.65638 26.6536 1.39434C26.346 1.27184 25.9975 1.42191 25.875 1.72934C25.7525 2.03685 25.9026 2.38551 26.2101 2.50794Z" fill="white"/>
</svg>
