<svg width="30" height="37" viewBox="0 0 30 37" fill="none" xmlns="http://www.w3.org/2000/svg">
<path d="M17.2357 22.4049V19.7786C17.2357 18.7431 16.3932 17.9007 15.3577 17.9007C14.3222 17.9007 13.4797 18.7431 13.4797 19.7786V22.1498C13.4797 25.0073 12.427 27.7507 10.5154 29.8747L7.87977 32.8032C7.65833 33.0492 7.67831 33.4282 7.92436 33.6497C8.17034 33.8711 8.54929 33.8512 8.77081 33.6051L11.4064 30.6766C13.5164 28.3321 14.6784 25.3039 14.6784 22.1498V19.7786C14.6784 19.4041 14.9831 19.0994 15.3577 19.0994C15.7322 19.0994 16.0369 19.4041 16.0369 19.7786V22.4049C16.0369 25.9213 14.7343 29.2908 12.3688 31.8928L9.79969 34.7189C9.57705 34.9637 9.59512 35.3429 9.84005 35.5655C9.95489 35.67 10.0991 35.7214 10.243 35.7214C10.406 35.7214 10.5684 35.6553 10.6867 35.5252L13.2557 32.6991C15.8222 29.876 17.2357 26.2201 17.2357 22.4049Z" fill="white"/>
<path d="M19.7929 19.7786C19.7929 17.333 17.8033 15.3434 15.3577 15.3434C12.9121 15.3434 10.9225 17.333 10.9225 19.7786V22.1498C10.9225 24.3745 10.1029 26.5104 8.61467 28.164L6.74093 30.2459C6.51949 30.492 6.53947 30.8709 6.78552 31.0925C7.03158 31.3139 7.41045 31.2938 7.63197 31.0479L9.5057 28.9659C11.1924 27.0918 12.1213 24.6712 12.1213 22.1498V19.7786C12.1213 17.994 13.5731 16.5421 15.3578 16.5421C17.1424 16.5421 18.5943 17.994 18.5943 19.7786V22.4049C18.5943 26.5587 17.0555 30.5392 14.2611 33.6129L12.0935 35.9975C11.8707 36.2423 11.8888 36.6215 12.1337 36.8442C12.2486 36.9486 12.3928 37 12.5367 37C12.6997 37 12.8621 36.9339 12.9803 36.8038L15.1481 34.4193C18.1433 31.1244 19.7929 26.8577 19.7929 22.4049V19.7786Z" fill="white"/>
<path d="M22.3501 19.7786C22.3501 15.9229 19.2134 12.7862 15.3577 12.7862C11.502 12.7862 8.36525 15.9229 8.36525 19.7786V22.1498C8.36525 23.7417 7.77877 25.27 6.71384 26.4532L5.0267 28.3279C4.80526 28.5739 4.82524 28.9529 5.07129 29.1744C5.31727 29.3958 5.6963 29.3757 5.91774 29.1298L7.60487 27.2552C8.86823 25.8515 9.56396 24.0383 9.56396 22.1498V19.7786C9.56396 16.5839 12.163 13.9849 15.3577 13.9849C18.5524 13.9849 21.1514 16.5839 21.1514 19.7786V22.4049C21.1514 27.1964 19.3764 31.7877 16.1532 35.3331L15.5533 35.993C15.3307 36.2379 15.3487 36.6171 15.5937 36.8397C15.7085 36.9441 15.8528 36.9955 15.9966 36.9955C16.1596 36.9955 16.322 36.9294 16.4403 36.7993L17.0401 36.1394C20.4643 32.3728 22.3501 27.4952 22.3501 22.4049V19.7786H22.3501Z" fill="white"/>
<path d="M5.80801 19.7786C5.80801 20.1097 6.07636 20.378 6.40737 20.378C6.73837 20.378 7.00672 20.1097 7.00672 19.7786C7.00672 17.7604 7.73944 15.8108 9.07001 14.289C10.3882 12.7812 12.1973 11.7952 14.1642 11.5127C14.4918 11.4656 14.7193 11.1618 14.6722 10.8342C14.6251 10.5066 14.321 10.2794 13.9937 10.3262C11.7434 10.6495 9.67423 11.7766 8.16754 13.5C6.64599 15.2403 5.80801 17.4702 5.80801 19.7786Z" fill="white"/>
<path d="M7.00671 22.1498C7.00671 21.8187 6.73836 21.5505 6.40736 21.5505C6.07636 21.5505 5.80801 21.8187 5.80801 22.1498C5.80801 23.1089 5.45471 24.0296 4.81316 24.7424L3.31247 26.41C3.09102 26.656 3.111 27.0349 3.35706 27.2565C3.47165 27.3595 3.61494 27.4103 3.75782 27.4103C3.92181 27.4103 4.08523 27.3433 4.2035 27.2119L5.7042 25.5444C6.54409 24.6111 7.00671 23.4056 7.00671 22.1498Z" fill="white"/>
<path d="M23.731 27.5001C23.4106 27.4167 23.0833 27.6081 22.9993 27.9282C22.7781 28.7736 22.5028 29.6141 22.181 30.4262C22.0591 30.7339 22.2097 31.0822 22.5175 31.2041C22.5899 31.2328 22.6646 31.2464 22.7381 31.2464C22.9766 31.2464 23.2022 31.1029 23.2955 30.8677C23.6351 30.0106 23.9255 29.1238 24.159 28.2316C24.2428 27.9115 24.0511 27.5839 23.731 27.5001Z" fill="white"/>
<path d="M21.736 12.6769C21.4898 12.4554 21.1108 12.4757 20.8896 12.7218C20.6683 12.968 20.6884 13.3469 20.9346 13.5682C22.6975 15.1531 23.7086 17.4166 23.7086 19.7786V22.4049C23.7086 23.4017 23.6399 24.4061 23.5042 25.3904C23.4591 25.7184 23.6883 26.0207 24.0162 26.0659C24.0439 26.0697 24.0715 26.0716 24.0987 26.0716C24.3934 26.0716 24.6504 25.854 24.6917 25.5539C24.8347 24.5156 24.9073 23.4561 24.9073 22.4048V19.7786C24.9074 17.0771 23.7514 14.4887 21.736 12.6769Z" fill="white"/>
<path d="M18.934 12.2329C19.0172 12.2725 19.1049 12.2912 19.1913 12.2912C19.4153 12.2912 19.6302 12.165 19.7329 11.9493C19.8752 11.6505 19.7482 11.2928 19.4494 11.1506C18.5859 10.7394 17.6681 10.4621 16.7215 10.3261C16.3934 10.2794 16.0901 10.5066 16.043 10.8341C15.9959 11.1617 16.2234 11.4655 16.551 11.5126C17.378 11.6314 18.1797 11.8737 18.934 12.2329Z" fill="white"/>
<path d="M15.3577 7.67171C15.1335 7.67171 14.9067 7.67794 14.6835 7.69025C14.3529 7.70847 14.0998 7.9912 14.118 8.32164C14.1363 8.65217 14.4187 8.90669 14.7495 8.88703C14.9508 8.87593 15.1554 8.87033 15.3576 8.87033C21.3724 8.87033 26.2658 13.7637 26.2658 19.7785V22.4048C26.2658 22.7359 26.5342 23.0042 26.8652 23.0042C27.1962 23.0042 27.4645 22.7359 27.4645 22.4048V19.7786C27.4646 13.1029 22.0334 7.67171 15.3577 7.67171Z" fill="white"/>
<path d="M8.80445 10.9236C8.92249 10.9236 9.0418 10.8888 9.14608 10.8163C10.1432 10.1229 11.2384 9.60521 12.4012 9.27733C12.7198 9.1875 12.9053 8.85634 12.8155 8.53781C12.7257 8.21927 12.3944 8.03403 12.076 8.12353C10.7846 8.48762 9.56859 9.06244 8.46178 9.83201C8.19 10.021 8.12287 10.3945 8.31187 10.6662C8.4283 10.8339 8.61482 10.9236 8.80445 10.9236Z" fill="white"/>
<path d="M4.44947 22.1498V19.7786C4.44947 16.9904 5.50537 14.3351 7.42266 12.3015C7.64969 12.0606 7.63859 11.6814 7.39773 11.4543C7.15687 11.2271 6.77751 11.2384 6.55048 11.4792C4.42262 13.736 3.25076 16.6836 3.25076 19.7786V22.1498C3.25076 22.4761 3.13057 22.7893 2.91241 23.0317L2.17337 23.8528C1.95193 24.0988 1.9719 24.4778 2.21796 24.6992C2.33247 24.8024 2.47584 24.8531 2.61873 24.8531C2.78271 24.8531 2.94605 24.7862 3.0644 24.6548L3.80345 23.8337C4.22004 23.3707 4.44947 22.7727 4.44947 22.1498Z" fill="white"/>
<path d="M29.2606 15.112C28.6033 13.1584 27.5586 11.3935 26.1555 9.8663C25.9315 9.62256 25.5524 9.60642 25.3087 9.83042C25.065 10.0544 25.0489 10.4335 25.2728 10.6773C26.5616 12.0801 27.5211 13.7008 28.1246 15.4942C28.2088 15.7446 28.4423 15.9026 28.6925 15.9026C28.7559 15.9026 28.8204 15.8924 28.8838 15.8711C29.1974 15.7655 29.3662 15.4256 29.2606 15.112Z" fill="white"/>
<path d="M20.0943 5.89938C19.7812 5.79221 19.4403 5.95915 19.3332 6.27241C19.226 6.5856 19.393 6.92635 19.7062 7.03343C21.0278 7.48567 22.2686 8.1408 23.3942 8.98085C23.5018 9.06116 23.6275 9.09984 23.7522 9.09984C23.9349 9.09984 24.1153 9.01665 24.233 8.8589C24.4311 8.59367 24.3764 8.21807 24.1112 8.02013C22.8856 7.1056 21.5341 6.39197 20.0943 5.89938Z" fill="white"/>
<path d="M6.04503 10.0618C8.56622 7.64445 11.8735 6.31317 15.3577 6.31317C16.0047 6.31317 16.6552 6.35976 17.2913 6.4515C17.6191 6.49929 17.9228 6.27154 17.9701 5.94389C18.0174 5.61625 17.7902 5.31242 17.4626 5.26511C16.7699 5.16522 16.0617 5.11447 15.3577 5.11447C11.5628 5.11447 7.96088 6.56418 5.21545 9.19653C2.47857 11.8207 0.877979 15.3423 0.708563 19.1125C0.693699 19.4432 0.949742 19.7234 1.28034 19.7382C1.28953 19.7386 1.29864 19.7388 1.30775 19.7388C1.62637 19.7388 1.8916 19.4879 1.90607 19.1664C2.0615 15.7052 3.53143 12.4718 6.04503 10.0618Z" fill="white"/>
<path d="M15.3577 2.55724C14.0174 2.55724 12.6818 2.71259 11.3881 3.01898C11.0659 3.09521 10.8667 3.41822 10.9429 3.74028C11.0193 4.06233 11.3423 4.26163 11.6643 4.18532C12.8677 3.9005 14.1102 3.75594 15.3577 3.75594C19.7526 3.75594 23.8551 5.50693 26.9092 8.68621C27.0269 8.80872 27.184 8.87041 27.3415 8.87041C27.4909 8.87041 27.6405 8.81495 27.7567 8.70331C27.9954 8.47396 28.0031 8.09453 27.7737 7.85591C26.1824 6.19938 24.3131 4.89623 22.2179 3.98289C20.0478 3.03688 17.7397 2.55724 15.3577 2.55724Z" fill="white"/>
<path d="M1.89472 10.0215C2.00436 10.1073 2.13454 10.1489 2.26384 10.1489C2.44181 10.1489 2.61794 10.0701 2.73613 9.91912C4.44428 7.73731 6.69305 6.02596 9.23926 4.96991C9.54501 4.84308 9.69014 4.49242 9.56331 4.18667C9.43649 3.88092 9.08567 3.73564 8.78008 3.86262C6.04376 4.99748 3.62741 6.83621 1.79235 9.17999C1.58825 9.44075 1.63412 9.81747 1.89472 10.0215Z" fill="white"/>
<path d="M7.04723 3.09465C7.13466 3.09465 7.22344 3.07548 7.30735 3.03488C9.83086 1.81644 12.5394 1.1987 15.3577 1.1987C16.8263 1.1987 18.2891 1.37148 19.7051 1.71223C20.0267 1.78943 20.3505 1.59156 20.4279 1.26975C20.5054 0.947935 20.3073 0.624205 19.9854 0.546769C18.4777 0.183961 16.9207 0 15.3577 0C12.3574 0 9.47356 0.657849 6.78623 1.95541C6.48816 2.09933 6.36317 2.45766 6.5071 2.75574C6.61042 2.96983 6.82443 3.09465 7.04723 3.09465Z" fill="white"/>
<path d="M22.2101 2.50794C22.828 2.75399 23.4396 3.03689 24.0278 3.34863C24.1173 3.3961 24.2133 3.41855 24.3079 3.41855C24.5228 3.41855 24.7305 3.30276 24.838 3.0997C24.993 2.80722 24.8816 2.44449 24.5891 2.28946C23.9628 1.95757 23.3116 1.65638 22.6536 1.39434C22.346 1.27184 21.9975 1.42191 21.875 1.72934C21.7525 2.03685 21.9026 2.38551 22.2101 2.50794Z" fill="white"/>
</svg>
