<svg width="34" height="33" viewBox="0 0 34 33" fill="none" xmlns="http://www.w3.org/2000/svg">
<path d="M16.7648 15.8962C18.9487 15.8962 20.8395 15.113 22.3849 13.5676C23.9297 12.0225 24.7132 10.132 24.7132 7.94786C24.7132 5.76451 23.93 3.87373 22.3846 2.32811C20.8392 0.783255 18.9484 0 16.7648 0C14.5807 0 12.6902 0.783255 11.1451 2.32836C9.59998 3.87347 8.81647 5.76426 8.81647 7.94786C8.81647 10.132 9.59998 12.0227 11.1451 13.5679C12.6907 15.1127 14.5815 15.8962 16.7648 15.8962ZM12.5127 3.69572C13.6983 2.51014 15.0891 1.93384 16.7648 1.93384C18.4404 1.93384 19.8314 2.51014 21.0172 3.69572C22.2028 4.88156 22.7794 6.27259 22.7794 7.94786C22.7794 9.62364 22.2028 11.0144 21.0172 12.2002C19.8314 13.3861 18.4404 13.9624 16.7648 13.9624C15.0896 13.9624 13.6988 13.3858 12.5127 12.2002C11.3269 11.0147 10.7503 9.62364 10.7503 7.94786C10.7503 6.27259 11.3269 4.88156 12.5127 3.69572Z" fill="white"/>
<path d="M30.6724 25.3753C30.6278 24.7323 30.5377 24.0309 30.405 23.2902C30.271 22.5439 30.0986 21.8385 29.8921 21.1937C29.6786 20.5273 29.3888 19.8691 29.0301 19.2385C28.6582 18.5839 28.2211 18.0139 27.7307 17.5448C27.2178 17.0541 26.5899 16.6596 25.8638 16.3718C25.1402 16.0855 24.3383 15.9405 23.4806 15.9405C23.1437 15.9405 22.8179 16.0788 22.1887 16.4884C21.8015 16.7409 21.3486 17.033 20.843 17.356C20.4107 17.6314 19.8251 17.8895 19.1018 18.1231C18.3961 18.3515 17.6795 18.4673 16.9721 18.4673C16.2651 18.4673 15.5485 18.3515 14.8423 18.1231C14.1198 17.8897 13.5339 17.6317 13.1023 17.3562C12.6016 17.0362 12.1484 16.7442 11.7554 16.4881C11.1267 16.0785 10.8009 15.9403 10.4641 15.9403C9.60602 15.9403 8.80438 16.0855 8.08105 16.3721C7.35545 16.6593 6.72728 17.0539 6.21392 17.5451C5.72347 18.0144 5.2864 18.5841 4.91479 19.2385C4.55652 19.8691 4.26648 20.527 4.05298 21.194C3.84678 21.8387 3.67432 22.5439 3.54037 23.2902C3.40744 24.0299 3.31756 24.7316 3.273 25.3761C3.22919 26.0063 3.20703 26.6621 3.20703 27.3248C3.20703 29.0474 3.75463 30.442 4.83447 31.4704C5.90097 32.4853 7.31189 32.9999 9.02821 32.9999H24.9179C26.6337 32.9999 28.0446 32.4853 29.1114 31.4704C30.1915 30.4427 30.7391 29.0477 30.7391 27.3245C30.7388 26.6596 30.7164 26.0038 30.6724 25.3753ZM27.778 30.0693C27.0733 30.74 26.1377 31.0661 24.9177 31.0661H9.02821C7.80788 31.0661 6.8723 30.74 6.16785 30.0696C5.47674 29.4117 5.14088 28.5136 5.14088 27.3248C5.14088 26.7064 5.16127 26.0959 5.20206 25.5098C5.24184 24.9347 5.32316 24.3031 5.44376 23.6318C5.56284 22.9689 5.71441 22.3468 5.89468 21.7836C6.06764 21.2436 6.30355 20.7088 6.59611 20.1937C6.87532 19.7027 7.19658 19.2815 7.55107 18.9421C7.88265 18.6246 8.30059 18.3648 8.79305 18.1699C9.2485 17.9897 9.76035 17.891 10.316 17.8761C10.3837 17.9121 10.5043 17.9809 10.6997 18.1083C11.0973 18.3673 11.5555 18.6629 12.062 18.9864C12.633 19.3505 13.3687 19.6793 14.2477 19.9631C15.1462 20.2536 16.0627 20.4011 16.9723 20.4011C17.882 20.4011 18.7986 20.2536 19.6967 19.9633C20.5764 19.6791 21.3118 19.3505 21.8836 18.9859C22.402 18.6546 22.8474 18.3676 23.2449 18.1083C23.4403 17.9811 23.5609 17.9121 23.6286 17.8761C24.1845 17.891 24.6964 17.9897 25.1521 18.1699C25.6443 18.3648 26.0622 18.6249 26.3938 18.9421C26.7483 19.2813 27.0695 19.7025 27.3488 20.1939C27.6416 20.7088 27.8777 21.2438 28.0504 21.7833C28.231 22.3473 28.3828 22.9692 28.5016 23.6316C28.622 24.3041 28.7035 24.936 28.7433 25.51V25.5105C28.7843 26.0944 28.805 26.7047 28.8052 27.3248C28.805 28.5139 28.4691 29.4117 27.778 30.0693Z" fill="white"/>
</svg>
