<svg width="17" height="16" viewBox="0 0 17 16" fill="none" xmlns="http://www.w3.org/2000/svg">
<path d="M8.76485 15.8962C10.9487 15.8962 12.8395 15.113 14.3849 13.5676C15.9297 12.0225 16.7132 10.132 16.7132 7.94786C16.7132 5.76451 15.93 3.87373 14.3846 2.32811C12.8392 0.783255 10.9484 0 8.76485 0C6.58074 0 4.6902 0.783255 3.14509 2.32836C1.59998 3.87347 0.816467 5.76426 0.816467 7.94786C0.816467 10.132 1.59998 12.0227 3.14509 13.5679C4.6907 15.1127 6.5815 15.8962 8.76485 15.8962ZM4.5127 3.69572C5.69829 2.51014 7.08907 1.93384 8.76485 1.93384C10.4404 1.93384 11.8314 2.51014 13.0172 3.69572C14.2028 4.88156 14.7794 6.27259 14.7794 7.94786C14.7794 9.62364 14.2028 11.0144 13.0172 12.2002C11.8314 13.3861 10.4404 13.9624 8.76485 13.9624C7.08957 13.9624 5.69879 13.3858 4.5127 12.2002C3.32687 11.0147 2.75031 9.62364 2.75031 7.94786C2.75031 6.27259 3.32687 4.88156 4.5127 3.69572Z" fill="white"/>
</svg>
