<svg width="28" height="18" viewBox="0 0 28 18" fill="none" xmlns="http://www.w3.org/2000/svg">
<path d="M27.6724 10.3753C27.6278 9.73232 27.5377 9.03089 27.405 8.29019C27.271 7.54394 27.0986 6.83848 26.8921 6.1937C26.6786 5.52727 26.3888 4.86914 26.0301 4.23846C25.6582 3.58386 25.2211 3.01385 24.7307 2.5448C24.2178 2.05411 23.5899 1.65958 22.8638 1.37181C22.1402 1.08555 21.3383 0.940529 20.4806 0.940529C20.1437 0.940529 19.8179 1.07875 19.1887 1.48838C18.8015 1.7409 18.3486 2.03296 17.843 2.35598C17.4107 2.63141 16.8251 2.88948 16.1018 3.12312C15.3961 3.35147 14.6795 3.46729 13.9721 3.46729C13.2651 3.46729 12.5485 3.35147 11.8423 3.12312C11.1198 2.88973 10.5339 2.63167 10.1023 2.35623C9.60158 2.03623 9.14839 1.74418 8.75538 1.48813C8.12671 1.0785 7.80092 0.940277 7.46405 0.940277C6.60602 0.940277 5.80438 1.08555 5.08105 1.37206C4.35545 1.65933 3.72728 2.05385 3.21392 2.54506C2.72347 3.01435 2.2864 3.58411 1.91479 4.23846C1.55652 4.86914 1.26648 5.52702 1.05298 6.19395C0.846779 6.83874 0.674316 7.54394 0.540375 8.29019C0.40744 9.02989 0.317558 9.73157 0.272995 10.3761C0.229187 11.0063 0.207031 11.6621 0.207031 12.3248C0.207031 14.0474 0.754631 15.442 1.83447 16.4704C2.90097 17.4853 4.31189 17.9999 6.02821 17.9999H21.9179C23.6337 17.9999 25.0446 17.4853 26.1114 16.4704C27.1915 15.4427 27.7391 14.0477 27.7391 12.3245C27.7388 11.6596 27.7164 11.0038 27.6724 10.3753ZM24.778 15.0693C24.0733 15.74 23.1377 16.0661 21.9177 16.0661H6.02821C4.80788 16.0661 3.8723 15.74 3.16785 15.0696C2.47674 14.4117 2.14088 13.5136 2.14088 12.3248C2.14088 11.7064 2.16127 11.0959 2.20206 10.5098C2.24184 9.93475 2.32316 9.30306 2.44376 8.63184C2.56284 7.96893 2.71441 7.34681 2.89468 6.7836C3.06764 6.24355 3.30355 5.70879 3.59611 5.19367C3.87532 4.70272 4.19658 4.28151 4.55107 3.94213C4.88265 3.62464 5.30059 3.36482 5.79305 3.16995C6.2485 2.98968 6.76035 2.89099 7.31601 2.87613C7.38374 2.91214 7.50433 2.98087 7.69971 3.10826C8.09725 3.36734 8.55547 3.66291 9.06203 3.98644C9.63305 4.3505 10.3687 4.67931 11.2477 4.96305C12.1462 5.25359 13.0627 5.40113 13.9723 5.40113C14.882 5.40113 15.7986 5.25359 16.6967 4.9633C17.5764 4.67906 18.3118 4.3505 18.8836 3.98593C19.402 3.65461 19.8474 3.36759 20.2449 3.10826C20.4403 2.98112 20.5609 2.91214 20.6286 2.87613C21.1845 2.89099 21.6964 2.98968 22.1521 3.16995C22.6443 3.36482 23.0622 3.6249 23.3938 3.94213C23.7483 4.28126 24.0695 4.70247 24.3488 5.19392C24.6416 5.70879 24.8777 6.2438 25.0504 6.78335C25.231 7.34731 25.3828 7.96918 25.5016 8.63159C25.622 9.30406 25.7035 9.936 25.7433 10.51V10.5105C25.7843 11.0944 25.805 11.7047 25.8052 12.3248C25.805 13.5139 25.4691 14.4117 24.778 15.0693Z" fill="white"/>
</svg>
